<svg xmlns="http://www.w3.org/2000/svg" viewBox="0 0 1400 667.37"><defs><style>.cls-1{fill:#e8f7ff;}.cls-2{fill:#1784be;}.cls-3{fill:#bdd411;}.cls-4{fill:#ed8709;}.cls-116,.cls-5{fill:#193c61;}.cls-115,.cls-160,.cls-34,.cls-5,.cls-59,.cls-82{opacity:0.25;}.cls-6{fill:#2a485c;}.cls-156,.cls-160,.cls-35,.cls-7,.cls-81,.cls-94,.cls-99{fill:#fff;}.cls-8{fill:#f2b772;}.cls-9{fill:#1d3240;}.cls-10{fill:#1e3240;}.cls-11{fill:#6e5105;}.cls-12{fill:#e6a90b;}.cls-13{fill:#ed4a1d;}.cls-14{fill:#e3b37a;}.cls-15{fill:#ffc989;}.cls-16{fill:#00223b;}.cls-17{fill:#aa5d00;}.cls-18{fill:#a0c414;}.cls-19{fill:#f5b40c;}.cls-20{fill:#d49c0a;}.cls-21{fill:#212d38;}.cls-22{fill:#ffba75;}.cls-23{fill:#005089;}.cls-24{fill:#bababa;}.cls-25{fill:#004170;}.cls-26{fill:#4d3016;}.cls-27{fill:#f0561f;}.cls-28{fill:#eda761;}.cls-29{fill:#f7af68;}.cls-30,.cls-32{fill:#2b3c4a;}.cls-31{fill:#d44c1b;}.cls-101,.cls-32,.cls-37{opacity:0.27;}.cls-33{fill:#0076ca;}.cls-34,.cls-42{fill:#8f0900;}.cls-35{opacity:0.17;}.cls-36{fill:#d75e00;opacity:0.19;}.cls-37{fill:#1f2b36;}.cls-38{fill:#0e1314;}.cls-39{fill:#ed5724;}.cls-40{fill:#bdedff;opacity:0.43;}.cls-41{fill:#542818;}.cls-43{fill:#f2b974;}.cls-44{fill:#ffcc8f;}.cls-45{fill:#e3ad6d;}.cls-46{fill:#007eb0;}.cls-47{fill:#d95d5b;opacity:0.12;}.cls-48{fill:#075791;}.cls-49{fill:#0862a3;}.cls-50{fill:#d6461a;}.cls-51{fill:#004763;}.cls-52{fill:#4294cf;}.cls-53{fill:#1b3945;}.cls-54{fill:#33c5ff;}.cls-55{fill:#a1e5ff;}.cls-56{fill:#006c96;}.cls-57{fill:#c7826d;}.cls-58{fill:#ffc285;}.cls-59{fill:#002e3b;}.cls-60{fill:#f7b816;}.cls-61{fill:#c74112;}.cls-62{fill:#eb930e;}.cls-63{fill:#253c47;}.cls-64{fill:#c4942e;}.cls-65{fill:#d9880d;}.cls-66{fill:#302519;}.cls-67{fill:#f0af6e;}.cls-68{fill:#e6a769;}.cls-69{fill:#d44513;}.cls-70{fill:#ab380f;}.cls-71{fill:#4a798f;}.cls-72{fill:#1a567d;}.cls-73{fill:#f5462b;}.cls-74{fill:#732114;}.cls-75{fill:#4f170e;}.cls-76{fill:#5b2600;}.cls-77{fill:#2a89c7;}.cls-78{fill:#267bb3;}.cls-79{fill:#f7dba3;}.cls-80{fill:#c2311b;}.cls-81{opacity:0.22;}.cls-101,.cls-82{fill:#00344e;}.cls-83{fill:#2d93d6;}.cls-84{fill:#2475ab;}.cls-85{fill:#cc3a24;}.cls-86{fill:#4e5d61;opacity:0.34;}.cls-87{fill:#e69a4e;}.cls-88{fill:#de4314;}.cls-89{fill:#00608f;}.cls-90{fill:#a6a6a6;}.cls-91{fill:#004f73;}.cls-92{fill:#2b1e14;}.cls-93{fill:#3087d9;}.cls-94{opacity:0.46;}.cls-95{fill:#22619c;}.cls-96{fill:#184570;}.cls-97{fill:#1d5285;}.cls-98{fill:#2974ba;}.cls-99{opacity:0.37;}.cls-100{fill:#00b0ff;}.cls-102{fill:#dea266;}.cls-103{fill:#18272e;}.cls-104{fill:#264047;}.cls-105{fill:#c93b26;}.cls-106{fill:#db9f65;}.cls-107{fill:#005578;}.cls-108{fill:#003a52;}.cls-109{fill:#004b69;opacity:0.55;}.cls-110{fill:#5c331d;}.cls-111,.cls-112{fill:#422515;}.cls-112,.cls-120{opacity:0.15;}.cls-113{fill:#00668f;}.cls-114{fill:#00638a;}.cls-117{fill:#20afd9;}.cls-118{fill:#ffc58f;}.cls-119{fill:#d75900;}.cls-121{fill:#ffb673;}.cls-122{fill:#2b4f66;}.cls-123{fill:#f2b780;}.cls-124{fill:#f7b476;}.cls-125{fill:#1b3140;}.cls-126{fill:#f0af73;}.cls-127{fill:#45290f;}.cls-128{fill:#172e42;}.cls-129{fill:#f0a607;}.cls-130{fill:#ffebd9;}.cls-131{fill:#75c425;}.cls-132{fill:#e67607;}.cls-133{fill:#c46506;}.cls-134{opacity:0.28;}.cls-135{fill:#cfa323;}.cls-136{fill:#69b021;}.cls-137{opacity:0.35;}.cls-138{fill:#cc5f06;}.cls-139{fill:#003047;}.cls-140{fill:#ffcb9c;}.cls-141{fill:#075085;}.cls-142{fill:#3895bf;}.cls-143{fill:#153747;}.cls-144{fill:#1d2a30;}.cls-145{fill:#cfdfe6;}.cls-146{fill:#332417;}.cls-147{fill:#f5b173;}.cls-148{fill:#f04e1d;}.cls-149{fill:#1d424d;}.cls-150{fill:#ffb878;}.cls-151{fill:#6bb81b;}.cls-152{fill:#5da117;}.cls-153{fill:#ff5213;}.cls-154{fill:#f2ab6a;}.cls-155{fill:#bf3e17;}.cls-156{opacity:0.69;}.cls-157{fill:#8aadb8;opacity:0.41;}.cls-158{fill:#c24719;}.cls-159{fill:#ffc59c;}</style></defs><g id="Layer_2" data-name="Layer 2"><g id="Ñëîé_3" data-name="Ñëîé 3"><polygon class="cls-1" points="1400 546.2 1400 375.35 1237.7 346.45 702.93 417.42 900.74 259.48 1061.07 226.87 1026.95 47.48 893.47 0 961.86 59.29 852.82 182.51 456.47 226.87 398.62 261.61 365.21 234.74 392.14 210.41 83.09 351.36 150.8 403.26 100.72 417.42 33 361.41 51 329.28 0 319.36 0 667.37 1400 667.37 1400 546.2"/><polygon class="cls-2" points="687.02 667.37 687.02 647.68 859.14 633.11 1018.94 616.46 925.36 618.11 1089.28 592.38 1289.07 576.54 1264.52 565.14 1400 546.2 1400 667.37 687.02 667.37"/><polygon class="cls-3" points="687.02 647.68 370.86 620.65 373.63 631.18 191.94 624.33 277.29 611.45 172.94 573.53 100.72 575.7 124.65 566.65 31 549.19 67 538.59 0 536.31 0 667.37 687.02 667.37 687.02 647.68"/><path class="cls-4" d="M421.29,667.37l179.6-60.59L727,627.37l154-34-61.32,28.75,72.41,7.56,29.7,37.69Z"/></g><g id="Ñëîé_4" data-name="Ñëîé 4"><path class="cls-5" d="M1330.33,354.7,1282,361.92l-53.1,13.39,15.72-9.84-32.67,9.84-4.79,10.25-25.19,5.32,4.07-6.68-70.77-2,3.71,8.92-40,9.65-13,10.81L1076.33,424l-63.41,11.2L981,431l14.68-13.76L962.33,428.7l-6.6,10.3,8.63,4.91-42.45,34.31-27.29,9.5,8.14,4.89L879,503.73l-21.84-5.22L821,512l1,7.94-23.71,3.5-27.67-5.34-24.89-16.37-12-5.44,5-8.6,139.64-39.77,48.17-23.5c-.49-3.47-1-6.94-1.46-10.41l36.38-4.9L974,413l37.2-7.1L1034,395.1l-38.84,5L974,395.56l9.37-8.42,50.62-4.35,30.14,2,22.44-1.07-4.87-11.9,19.2,6.11,23.22-5.37,17-.95,1.69,4.76,25.06-5.9,23.94,2.27,15.35-4.32-28.13-13Z"/><path class="cls-5" d="M633.57,522.24l5.32,3.14L603.55,531l7.72-8.71L566.41,531l-58.81-8.71,20-7.39-68.28-16.08L462,482.58l-19.76-3.06-19.94,3.35-38.1-7.35L369.5,451.07l-12.7-13.31-26.37-3.44,10.51-13.88-39.4-6.27L277.67,398.7,225,394l10.67-8.66-42-16.67-62.67,2L128.33,366,71,367.37,66.33,360l58-8.66,7.34,4,53.13-3.07,31.53-1.88,2.68,8.95,12.16-3.79,10.94-1.33L274.55,376l52.61,18.49,146.45,40.79,30.71,19.18,31.24,3.17-9.38,8.49,28.6,7.25L640,498.52Z"/></g><g id="Ñëîé_1" data-name="Ñëîé 1"><path class="cls-6" d="M64.21,343.14,69.4,333l9.86-4.56,11,2.66,6.83,6.58,1.9,8.73-1.27,9-5.19,7.71L81,366.54,69.4,361l-4.56-9.1Z"/><path class="cls-7" d="M68.05,344.1q2-3.94,4-7.89l7.69-3.55,8.58,2.07,5.32,5.13,1.48,6.8-1,7c-1.34,2-2.69,4-4,6l-9,2.66L72.09,358l-3.55-7.1Q68.29,347.51,68.05,344.1Z"/><polygon class="cls-8" points="148.86 278.92 156.83 276.05 162.75 278.92 176.03 278.92 183.8 280.63 196.87 288.65 196.87 292.09 192.79 293.62 178.28 289.03 174.6 286.93 169.09 288.08 160.91 287.89 155.4 288.84 151.25 288.46 147.43 284.83 148.86 278.92"/><polygon class="cls-9" points="192.79 293.62 198.35 297.62 205 297.62 207.37 293.62 205.85 290.56 202.79 291.9 196.87 288.65 192.79 293.62"/><path class="cls-10" d="M149.64,330.33l7.22-14.08,13.74-6.34,15.32,3.69,9.51,9.16,2.64,12.15-1.76,12.5-7.22,10.75-16,4.75-16.2-7.75-6.34-12.68Z"/><path class="cls-11" d="M154.73,331.61l5.7-11.12,10.85-5,12.1,2.92,7.51,7.23,2.09,9.6-1.39,9.87-5.71,8.48-12.65,3.76-12.8-6.12q-2.49-5-5-10C155.2,338,155,334.81,154.73,331.61Z"/><polygon class="cls-12" points="165.43 311.21 159.01 319.51 156.36 329.95 163.32 335.81 171.23 335.81 194.9 324.73 203.85 320.53 201.26 311.21 192.25 308.06 182.38 305.65 165.43 311.21"/><polygon class="cls-13" points="144.04 282.03 153.4 278.02 163.13 280.03 174.4 287.76 181.27 298.83 182.61 307.04 176.69 313.53 168.67 314.3 161.03 307.04 150.86 303.42 144.04 296.16 144.04 287 144.04 282.03"/><polygon class="cls-14" points="147.29 289.1 148.63 295.59 155.88 300.74 162.94 298.64 165.43 293.3 161.42 286.43 154.16 285.09 147.29 289.1"/><polygon class="cls-15" points="148.72 283.18 156.69 280.32 162.61 283.18 175.89 283.18 183.66 284.9 196.73 292.92 196.73 296.35 192.65 297.88 178.14 293.3 174.46 291.2 168.95 292.34 160.77 292.15 155.26 293.11 151.11 292.73 147.29 289.1 148.72 283.18"/><path class="cls-15" d="M144,296.16l-1.91-4.58-4.58-1.15-7.82,1-2.1-3.63-1.34-5.34v-5.73l7.83-3.25,5.91,1.34,4,4-2.76,2.79L144,282Z"/><polygon class="cls-16" points="130.34 291.31 131.43 292.45 135.84 291.88 135.84 290.64 130.34 291.31"/><path class="cls-16" d="M134,278.36q-.69,6.34-1.36,12.68l2.55-.32q.77-6.47,1.52-13Z"/><path class="cls-17" d="M138.51,284.53l2.48-1.35-1.33-4.31C139.28,280.76,138.89,282.64,138.51,284.53Z"/><path class="cls-18" d="M126.29,276.69l-2.86-1.15,2.86-5.15,8.88-2.86,7,1.52,3.25,6.11L144,278.79l-1.32,3-1.44-.17-6.88-2.12Z"/><path class="cls-15" d="M136.35,280.31l2.63-.68,1.28,1.56-1.75,3.34L137,285.74l-1.18-.59C136,283.54,136.18,281.92,136.35,280.31Z"/><path class="cls-9" d="M166.63,333.58q3.62-7.05,7.22-14.09l13.74-6.34,15.32,3.7,9.51,9.16,2.64,12.15-1.76,12.5-7.22,10.74-16,4.76-16.21-7.75-6.33-12.68Q167.07,339.66,166.63,333.58Z"/><path class="cls-19" d="M179.48,335.66l2.54-7.42,7.61-3.51,8.49,2,5.27,5.08,1.46,6.73-1,6.93s-3.71,6-4,6-7.71,2-7.71,2L185,351.57,181,345.62Z"/><polygon class="cls-19" points="173.85 319.49 206.08 361.4 210.63 354.87 180.59 316.38 173.85 319.49"/><path class="cls-16" d="M197.45,336.31l-5.35-2.54-4.07,2-.75,5.1,3.57,3.56h4.74l2.62-3.56C198,339.37,197.7,337.84,197.45,336.31Z"/><path class="cls-7" d="M201.27,311.21V309l-11.2-5.09-12.48,2.93-10.31,7.51-7.38,15v3.62l3.43,2.87,4.46-14.25,11.71-9.16,10.44-4.71Z"/><polygon class="cls-9" points="192.65 297.88 198.21 301.89 204.85 301.89 207.23 297.88 205.71 294.82 202.65 296.16 196.73 292.92 192.65 297.88"/><polygon class="cls-20" points="166.63 333.58 115.6 331.29 112.16 333.58 112.16 336.41 167.19 341.23 166.63 333.58"/><polygon class="cls-20" points="159.01 319.51 133.09 333.77 139.75 333.77 164.12 320.73 159.01 319.51"/><path class="cls-13" d="M131.44,332l-29.59-1.48-1.71,5.28,1.14,4.46,22.15,1.91,8-4.07Z"/><polygon class="cls-9" points="101.85 330.52 112.16 324.73 127.81 331.82 101.85 330.52"/><path class="cls-9" d="M100.14,335.8,79.71,347.71l1.53,1.9,20-9.35Z"/><polygon class="cls-21" points="282.02 328.35 268.71 326.63 262.79 328.35 262.44 330.89 281.84 332.62 282.02 328.35"/><path class="cls-22" d="M288.51,294.23l-11.38,1.1-11-1.47-7.32.44c.2,1.81.39,3.61.59,5.42l8.61,3.16,9.63,1.29,6.47-4.17Z"/><path class="cls-23" d="M304.73,315.06l3.51-3.07,10.24,4.1L320.09,330l-6.44,16.09s-13.31-2.34-13.31-2.78,1.47-10.67,1.47-10.67Z"/><polygon class="cls-21" points="278.7 328.08 289.81 328.96 298 334.23 305.17 343.59 308.24 354.56 307.22 364.36 303.56 373.57 296.98 381.18 287.04 386.3 276.8 386.88 266.26 381.32 260.49 373.86 256.03 364.06 256.03 351.92 261.14 340.66 269.56 332.91 278.7 328.08"/><polygon class="cls-24" points="279.37 333.85 288.31 334.55 294.89 338.79 300.65 346.31 303.12 355.13 302.3 363.01 299.36 370.42 294.07 376.53 286.07 380.65 277.84 381.12 269.38 376.65 264.73 370.65 261.14 362.77 261.14 353.01 265.26 343.96 272.02 337.73 279.37 333.85"/><polygon class="cls-25" points="280.06 339.76 286.76 340.29 291.7 343.47 296.02 349.11 297.87 355.72 297.25 361.63 295.05 367.18 291.08 371.76 285.09 374.85 278.92 375.2 272.57 371.85 269.09 367.35 266.4 361.45 266.4 354.13 269.49 347.35 274.55 342.67 280.06 339.76"/><path class="cls-26" d="M273.14,277.18l-.73-2.19c0-2,.09-4,.14-6l2.06-1.3,4-.7,5.81,1.11,5.1,3.82c.44,1.58.87,3.17,1.3,4.75-.07,1.55-.15,3.12-.24,4.7-.1,1.74-.2,3.46-.32,5.16l-2.63,3.07-5.78-3.94-5.19-7.61Z"/><polygon class="cls-22" points="273.82 290.49 277.67 290.49 282.21 288.59 284.99 286.54 286.45 286.54 288.5 285.52 288.5 282.15 287.18 282.15 285.72 282.15 283.96 280.55 283.67 275.72 281.16 273.23 277.09 273.23 273.82 274.55 273.14 277.18 273.14 279.52 273.82 281.28 272.41 283.03 272.99 287.27 273.82 290.49"/><path class="cls-27" d="M279,296.05l-3.07,9.07.73,8.56,3.8,9.87,1.39,6v5.11l8.63,2.13,14.26-3.3,1.17-8.36-1-11.45-1.46-14L298,293.56l-5.26-2.26-4.24-2.71-5.41,3.8Z"/><path class="cls-28" d="M273.82,290.49l3.27,1.46,1.9,4.1.58,3.73c1.13-1.24,2.25-2.49,3.37-3.73l2.92-3.95,1.76-2.49-1.17-3.07H285l-2.78,2-4.54,1.9Z"/><polygon class="cls-29" points="250.47 372.11 246.96 372.11 243.74 369.92 249.74 356.9 251.93 344.32 252.96 338.47 254.56 334.66 262.17 332.62 270.65 332.62 281.84 334.66 264.07 339.05 258.51 362.02 255.29 363.92 250.47 372.11"/><path class="cls-23" d="M266.34,352.36l23,3.4,8.34-4.38s-.88-5.6-1.53-5.71-21.25-3.95-21.25-3.95h-7.5Z"/><path class="cls-30" d="M250.29,377l-4.15-.68-3.9,1.61-1.9,4v4.53l2.78,3.07,3.65,1.17,4.83-1.17,2.49-2.77c0-1.66,0-3.32.07-5L253,379Z"/><polygon class="cls-31" points="250.47 372.11 249.44 377.59 248.35 380.15 241.4 379.57 233.21 378.25 228.38 376.13 227.8 373.57 230.72 373.28 235.84 372.11 241.55 370.94 243.74 369.92 246.96 372.11 250.47 372.11"/><polygon class="cls-23" points="235.27 378.58 234.67 381.47 252.21 386.59 254.16 382.59 246.08 380.15 235.27 378.58"/><path class="cls-23" d="M252.21,386.59l12-1.75L268,373q2.49-11.26,5-22.53l-9.5-2.78-3.66,16.82-7.18,14.92-4.3,4.1Z"/><polygon class="cls-32" points="261 383.52 263.87 373.5 268.71 355.76 269.82 349.54 281.32 350.97 268.66 347.16 264.75 352.36 260.01 372.82 257.87 381.12 261 383.52"/><polygon class="cls-27" points="261 374.45 256.17 374.45 252.96 371.67 249.3 374.45 244.32 376.06 239.21 376.06 236.87 376.06 236.87 377.96 239.64 380.45 245.38 381.62 252.21 382.35 258.37 383.52 261 383.52 261 379.42 261 374.45"/><path class="cls-31" d="M258.21,333.68l2.79.72s14.63,2.09,14.92,1.73,7.85-1,7.85-1l-1.93-2.52L267.43,332l-9.22.66-2.06,1.61Z"/><polygon class="cls-22" points="281.84 334.66 266.12 333.79 258.81 334.66 256.46 343 256.46 359.68 252.96 371.67 256.17 374.45 261 374.45 264.22 365.67 267.44 352.51 269.34 344.17 275.19 347.1 290.33 350.02 299.32 347.24 303.49 341.54 304.73 333.49 290.91 336.27 281.84 334.66"/><path class="cls-27" d="M263.87,334.06l4.9,4.48.57,5.63.77,3.51L281.84,351l15.87-2.23,7.46-4.5-.36-7.6c-.3-1.5-.59-3-.88-4.5l-12.56,1.35-9.82.33-17.26-.44Z"/><polygon class="cls-30" points="292.44 338.21 303.4 336.13 312.69 339.06 322.06 346.21 327.91 355.99 329.5 365.71 328.39 375.56 324.04 384.63 315.79 392.19 306.07 395.44 294.44 392.85 286.91 387.17 280.03 378.89 276.84 367.17 278.82 354.96 284.89 345.27 292.44 338.21"/><polygon class="cls-7" points="294.61 343.59 303.42 341.93 310.88 344.28 318.42 350.02 323.12 357.88 324.4 365.7 323.51 373.63 320.01 380.92 313.38 386.99 305.56 389.61 296.22 387.52 290.16 382.96 284.63 376.3 282.06 366.88 283.65 357.06 288.54 349.27 294.61 343.59"/><polygon class="cls-33" points="296.69 348.77 303.44 347.49 309.15 349.29 314.92 353.69 318.52 359.71 319.5 365.7 318.82 371.76 316.14 377.34 311.06 382 305.08 384 297.92 382.4 293.28 378.91 289.05 373.81 287.08 366.6 288.3 359.08 292.04 353.11 296.69 348.77"/><path class="cls-7" d="M281.84,332.62l-.29,1.2,18.79.69,4.39,2.13.32-5.41s-8.8-1.61-9.24-1.61-14,1.17-14,1.17Z"/><path class="cls-30" d="M271.06,381.79l-4.15-.67-3.9,1.61-1.9,3.94v4.54l2.78,3.07,3.65,1.17,4.83-1.17,2.49-2.78.07-5-1.12-2.78Z"/><path class="cls-7" d="M270.43,383.13l-3.29-.53-3.1,1.27L262.53,387v3.6l2.21,2.43,2.9.93,3.83-.93,2-2.2.06-3.95-.9-2.21Z"/><path class="cls-33" d="M269.45,385.22l-1.95-.32-1.85.76-.89,1.86v2.15l1.31,1.45,1.73.55,2.28-.55,1.17-1.32,0-2.35-.53-1.31Z"/><polygon class="cls-32" points="304.73 336.64 311.83 329.03 312.92 318.76 308.24 314.59 304.73 315.06 305.9 325.13 305.05 331.23 304.73 336.64"/><path class="cls-7" d="M268.66,347.16l4.85,1.58,1.42-7-5-8.19-5.67-.15-.42.68q2.43,2.46,4.84,4.94C268.69,341.72,268.68,344.44,268.66,347.16Z"/><polygon class="cls-7" points="263.87 334.06 258.21 332.62 256.15 334.23 258.21 333.68 261 334.4 263.87 334.06"/><path class="cls-34" d="M288.43,301.9l2-4.64,8.44-1.53,3.29,4.82V312l-4.46,2.6-7.27-6.14-7.24,7.78S288.35,302.74,288.43,301.9Z"/><polygon class="cls-34" points="274.93 341.06 279.79 343.77 283.19 341.06 286.81 336.79 292.44 338.21 284.89 345.27 281.32 350.97 273.5 348.74 269.96 343.88 274.93 341.06"/><polygon class="cls-35" points="284.89 345.27 306.49 372.11 303.4 336.13 292.44 338.21 284.89 345.27"/><polygon class="cls-36" points="268.71 339 262.79 341.56 261.98 347.68 263.87 354.85 262.54 365.27 256.17 374.45 259.39 374.45 264.22 365.67 267.18 353.56 268.66 347.16 268.71 339"/><polygon class="cls-7" points="252.96 371.67 254.45 375.69 257.52 377.59 261 374.45 262.79 369.56 254.43 366.63 252.96 371.67"/><polygon class="cls-7" points="245.95 365.12 252.96 367.89 250.47 372.11 247.25 373.5 245.13 372.84 243.74 369.92 245.95 365.12"/><polygon class="cls-37" points="308.24 311.99 316.43 317.66 317.7 329.03 312.69 339.06 315.58 341.27 320.09 329.98 318.48 316.09 308.24 311.99"/><path class="cls-22" d="M301.65,300.65l-3.29-4.73-5.87-1.12-4.38.61c-.67,1-1.33,2.11-2,3.17l-7.51,2.93-7.7,4-6.15,1.09,3.73,4.61,7.46,1.54,5.71-1.54,5.39-2.87,5.09-1.41,4.05-.63,4.56-3.4Z"/><path class="cls-38" d="M276.65,278.06l2.8-.63,1.75.63-4.55.91Z"/><polygon class="cls-38" points="273.14 279.52 272.41 279.41 272.77 278.46 273.14 278.46 273.56 278.99 273.14 279.52"/><polygon class="cls-28" points="273.27 283.1 273.82 283.69 275.39 283.1 273.27 283.1"/><polygon class="cls-28" points="273.82 285.95 273.82 285.33 275.92 285.95 276.27 286.39 274.33 287.09 274.15 286.21 273.82 285.95"/><polygon class="cls-28" points="276.65 278.97 276.65 280.47 277.88 279.22 279.96 278.46 276.65 278.97"/><polygon class="cls-28" points="273.14 279.52 274.33 280.91 273.82 281.28 273.14 279.52"/><path class="cls-22" d="M259.29,294.53l-3.23-1.84c-3.2-.64-6.57-1.23-10.09-1.75-4.55-.67-8.9-1.14-13-1.46l-1.75,1.46,2.48,3.66,7.9,2.19,12,3.36,6.14,1,2.19-.88Z"/><path class="cls-22" d="M230.4,287.42l-5.12,3.43c0,1.2,0,2.39,0,3.59l4.36,2.1,7.78-1.27L235.93,290Z"/><polygon class="cls-39" points="220.61 282.18 215.15 274.08 214.16 275.86 219.01 282.46 210.63 278.06 208.75 279.71 219.13 285.52 220.61 282.18"/><path class="cls-39" d="M200.92,278.44l7.83,1.27,1.88-1.65,3.53-2.2,1-1.78-2.45-7.35-6.77-9.88-10.3-5-8.19,3.4-.76,8.81,5.61,6.61Zm-11.63-14.13.62-7.17,6.68-2.78,8.39,4.1,5.52,8.06,2,6-.81,1.45-2.88,1.79-1.53,1.35-6.38-1-7-6.36Z"/><polygon class="cls-40" points="193.86 269.7 189.29 264.31 189.91 257.13 196.59 254.36 204.98 258.46 210.5 266.52 212.49 272.51 211.68 273.96 208.8 275.75 207.27 277.1 200.89 276.06 193.86 269.7"/><polygon class="cls-25" points="219.13 285.52 220.61 282.18 229.19 290.03 235.52 295.02 237.87 297.32 234.6 299.23 230.53 295.41 227.89 292.68 227.89 292.68 219.13 285.52"/><path class="cls-22" d="M235.63,291.07l-.49-1.14-4-2.51-3.45-1.11-2.38-.1c0,.51,0,1-.07,1.51l2.4,1.13,2.42,2.3,5.83,2.68Z"/><path class="cls-22" d="M225,289.91l2.9-1.52,2,.43-.43,4.17,1.64,2.33-2,1.07-3.7-2.55C225.31,292.53,225.15,291.22,225,289.91Z"/><path class="cls-41" d="M235.32,289.61l2.08,2.78-.82,3,4.1,1.14,1-3.38L240.8,290l-3-.17Z"/><polygon class="cls-41" points="264.75 306.61 264.36 308.63 265.37 311.99 269.4 313.25 275.94 312.76 278.31 308.71 277.19 305.16 274.14 303.7 270.9 305.52 264.75 306.61"/><polygon class="cls-7" points="296.18 306.31 297.87 311.99 297.02 314.01 297.71 318.02 299.96 320.37 299.96 323.89 296.99 325.62 296.6 332.62 298.55 332.74 297.87 326.63 301.65 324.52 301.29 319.04 298.91 317.48 298.91 313.25 300.35 310.51 297.05 305.66 296.18 306.31"/><polygon class="cls-30" points="308.83 334.06 305.27 329.62 287.62 328.08 281.84 330.79 283.2 333.77 308.83 336.17 308.83 334.06"/><polygon class="cls-42" points="281.55 300.36 284.52 303.7 284.52 309.69 287.04 308.35 287.62 301.18 284.58 299.02 281.55 300.36"/><path class="cls-43" d="M1292.57,323.42l.37,9.31-1,4.24,5.52-1,2.51,2.53-1.84,3.22-3.49,1.57-9.76,1.28-1.93-2.69v-6.68l2.57-6.29Z"/><polygon class="cls-44" points="1305.57 325.84 1308.78 322.33 1310.06 320.54 1312.76 320.54 1312.76 319 1312.76 316.04 1313.91 314.89 1313.91 312.83 1315.2 310.14 1315.2 306.54 1312.12 302.44 1306.72 298.58 1301.46 298.58 1296.45 300.77 1294.02 304.49 1292.94 309.94 1299.41 314.63 1305.57 325.84"/><polygon class="cls-45" points="1292.06 326.54 1296.33 323.42 1299.92 322.59 1305.57 325.84 1302.74 320.41 1302.23 314.12 1298.81 311.11 1296.58 308.6 1292.06 310.27 1288.49 312.58 1291.19 321.18 1292.06 326.54"/><path class="cls-46" d="M1292.94,321.22l-2,12.13-11.67,9.52L1265,349.61l-2.5,1L1237.66,346l-3.34,3.33q.51-3.5,1-7,8.46-5.12,16.94-10.21l12.52-12.32,15.13-8.66h10.4Z"/><path class="cls-44" d="M1295.24,314.58l-2.67,8.84-6.23,1-8.71-4.91-2.79-4.91-6.74-3.47-5.9-3.37-6.45,2.77-4.46,3.38-2.76-2c.2-1.38.41-2.77.61-4.15,1.44-1.89,2.87-3.79,4.3-5.68l8.3-5.53,5.2,1.58,4.63,2.6,11.84,5.49,4.62,3.18Z"/><polygon class="cls-47" points="1305.57 325.84 1300.4 320.02 1302.23 314.12 1302.74 320.41 1305.57 325.84"/><path class="cls-48" d="M1237,356.83l-4.73.12v-6.63l4.07-4.25.86-.89,2.14,4.47,2,4.27s3.6,1.31,7.08,2.63Z"/><path class="cls-49" d="M1262.61,356.2l-14.06.35.24.12-.33-.12-11.46.28-.88-6.51.66-3.15.42-2,8.23-.95,2.88-.33,3,.64,12.23,2.63,14.28,8.65Z"/><polygon class="cls-50" points="1292.58 323.42 1282.97 326.54 1277.97 322.72 1274.5 319.98 1274.84 314.58 1277.63 319.49 1286.34 324.4 1292.58 323.42"/><polygon class="cls-51" points="1266.44 348.93 1260.89 347.75 1248.31 343.9 1264.07 347.5 1266.44 348.93"/><path class="cls-52" d="M1262.61,356.2l-14.06.35-3.4-1.8q.74-2.55,1.49-5.1c.1-.36.2-.71.31-1.07.45-1.56.91-3.12,1.36-4.68l3,.64,3.64,6.06Z"/><polygon class="cls-50" points="1264.07 347.5 1260.51 338.96 1268.65 325.81 1264.58 322.07 1251.18 336.2 1237.2 345.19 1248.31 343.9 1264.07 347.5"/><polygon class="cls-53" points="1313.91 314.89 1313.91 316.61 1312.76 317.57 1310.42 316.23 1310.42 314.58 1311.68 313.04 1313.91 314.89"/><polygon class="cls-53" points="1311.68 313.04 1305.06 307.57 1305.57 309.37 1310.42 314.58 1311.68 313.04"/><polygon class="cls-46" points="1313.91 312.83 1315.2 310.14 1315.2 306.54 1312.17 301.17 1306.62 297.37 1298.2 297.37 1293.5 301.4 1293.5 307.1 1301.2 308.08 1302.47 306.36 1305.06 307.57 1306.3 308.6 1313.91 312.83"/><polygon class="cls-52" points="1282.97 326.54 1271.2 329.28 1260.51 338.96 1268.65 325.81 1274.5 319.98 1282.97 326.54"/><path class="cls-54" d="M1332.13,349.65l-2.31,4.9-52,1.27-15.2.38-14.06.35h-.09l-11.46.28-4.73.12-17.21.42-23-2h12.45l17.12-8.43v-7.72l5.86-3.21,2.1,4.54-4,6.39,4,4.89,2.82-6.14h3.78l.13.34.44,1.1,1,2.48h9.56l-.37-1.07-1.52-4.35-1.27-3.64,12.23-3.71,3.14,8.16,8.13-3.64,13.42,5.58,13.17-3.21L1302,331.3l14.92-5V331l-5.74,8.3,5.74,3.95,3.22-3.95c3.69.83,5.07,7.72,5.07,7.72Z"/><polygon class="cls-55" points="1247.32 349.65 1248.71 345.26 1253.09 343.2 1256.39 345.26 1258.11 349.65 1253.88 346.42 1251.82 346.98 1247.32 349.65"/><polygon class="cls-55" points="1303.36 346.42 1303.36 339.37 1308.39 338.06 1311.18 342.24 1309.43 343.77 1308.39 341.4 1305.86 341.4 1304.58 349.65 1301.02 352.41 1301.02 346.98 1294.5 346.98 1290.49 350.92 1294.25 343.77 1299.41 343.77 1303.36 346.42"/><polygon class="cls-55" points="1299.41 325.05 1299.41 321.68 1296.04 321.68 1294.5 325.05 1299.41 325.05"/><polygon class="cls-55" points="1251.82 318.66 1251.93 323.81 1247.54 325.23 1247.54 320.57 1251.82 318.66"/><polygon class="cls-56" points="1313.91 312.83 1313.79 312.5 1310.42 303.63 1311.68 311.59 1313.91 312.83"/><polygon class="cls-57" points="1274.84 314.58 1279.06 318.8 1287.72 322.53 1292.58 323.42 1286.34 324.4 1277.63 319.49 1274.84 314.58"/><polygon class="cls-47" points="1274.84 314.12 1282.08 313.04 1286.8 316.61 1292.58 323.42 1286.68 323.42 1277.63 319.49 1274.84 314.12"/><path class="cls-57" d="M1262.2,307.74l1.43-4.11-.54,4.6Z"/><path class="cls-58" d="M400.66,361.61l5.56-6,7.54-12.05-3.64-5.9-11.46-17.88.87-4.68,4.86-.7,16.66,17.36q2.7,5.12,5.38,10.24l-1.56,8.85-9.13,15-9.06,14.74-1.74-9.95Z"/><polygon class="cls-59" points="476.24 439.02 426.43 443.23 420.36 449.24 398.93 452.95 378.61 443.96 432.51 437.33 476.24 439.02"/><path class="cls-60" d="M379.05,357.11l-7.11,4.68-10.07,3.82q-1.42,8.83-2.86,17.65L365.55,404l9,21.78,6,4.35,9.25,4.36,21-3.81,6.26-7.35-5.44-19.87-2.45-20.69.81-13.61L402,360.4l-12.21-3.81Z"/><path class="cls-61" d="M409.6,413.25l28.63,3.38,9.9,5.73,12.23,1.82L476.24,439l-21.35.26-9.32.6-27.38,1q-4.32-7.93-8.62-15.89Z"/><polygon class="cls-62" points="385.63 378.64 394.25 381.36 398.97 378.77 401.28 371.83 401.15 363.39 392.17 373.86 385.63 378.64"/><polygon class="cls-62" points="403.35 376.55 402.02 391.98 392.67 402.18 382.88 405.72 395.03 404.86 402.02 400.5 402.02 406.67 396.17 410.12 397.94 413.93 394.67 417.92 386.78 421.37 405.83 423.28 409.57 424.95 416.99 421.37 411.55 403.41 407.55 379.82 403.35 376.55"/><path class="cls-62" d="M379.05,357.11l-4.33,2.9q2.89,4.31,5.8,8.59l7.82,3.78,8.51,1,1.09-7.09q-2.25-4.2-4.48-8.4l-6.77-2.86Z"/><path class="cls-58" d="M365.65,366.33l1.78,10.22-1.78,14.05-2.81,4.78-3.22-7.9-5-6.6-8.67-12.49-8.16-17.53c.64-2.32,1.27-4.63,1.91-6.94l16-31.59,3.39-2.08,4.6,4.68q-1.74,3.65-3.47,7.29-3,8.94-5.9,17.88c-.35,2.49-.7,5-1,7.46l4,9.89,4.77,8.88Z"/><path class="cls-63" d="M378.36,271.2l6.24,2.93,4.69,5.14,2.3,7.52-2.3,8.19-7.5,5.71-8.62,1.95-7.48-4.37-5-6.82v-9l4-6.82,6.25-4.07Z"/><polygon class="cls-64" points="373.17 302.64 369.25 293.98 371.99 281.27 376.94 274.13 381.79 272.81 384.6 274.13 378.61 276.18 371.99 286.29 371.26 293.98 373.17 302.64"/><polygon class="cls-58" points="354.79 312.57 356.67 315.67 360.66 316.84 364.91 313.93 368.47 309.21 369.25 304.35 367.43 301.6 365.86 304.28 365.17 308.01 363.61 308.91 363.44 301.6 360.66 295.8 357.71 293.98 354.79 292.83 353.19 293.98 353.19 298.79 353.19 305.4 354.79 312.57"/><polygon class="cls-58" points="405.09 315.74 403.22 318.83 399.23 320.01 394.98 317.09 391.42 312.37 390.64 307.52 392.46 304.76 394.02 307.45 394.72 311.17 396.28 312.08 396.45 304.76 399.23 298.97 402.18 297.15 405.09 296 406.69 297.15 406.69 301.96 406.69 308.57 405.09 315.74"/><polygon class="cls-65" points="370.14 362.98 366.04 361.62 364.13 363.39 361.22 361.62 357.19 357.45 357.19 366.33 353.19 378.88 349.75 373.92 350.76 381.36 356.32 389.56 362.84 395.38 369.25 390.25 371.99 375.33 370.14 362.98"/><polygon class="cls-65" points="397.94 358.91 398.67 356.93 401.44 357.92 404.05 354.94 409.57 350.27 413.42 356.32 415.08 362.14 415.08 370.04 409.37 378.13 406.51 368.74 397.94 358.91"/><polygon class="cls-66" points="374.24 352.07 371.99 356.31 370.83 349.44 368.11 344.65 369.27 337.92 368.11 327.3 373.16 320.75 373.42 325.36 375.75 321.56 376.91 325.99 381.66 322.65 388.31 326.17 393.35 333.14 394.88 341.55 398.14 348.91 394.88 348.91 393.74 352.03 388.43 348.91 374.24 352.07"/><path class="cls-67" d="M374.24,352.08l3.18,2.65.27,6.84,2.89,4.14,5.22,2.94,6.39-2.76V359.5l-1-6.22,1-4.48-9-.87Z"/><polygon class="cls-58" points="370.83 334.99 370.83 344.82 374.24 352.07 380.58 354.21 385.97 353.28 392.19 348.8 392.19 340.79 387.1 331.41 381.51 327.73 373.36 330.32 370.83 334.99"/><polygon class="cls-66" points="373.36 330.32 377.56 332.61 376.72 331.12 382.48 332.16 380.93 330.32 388.5 331.96 383.64 326.14 376.26 326.46 373.36 330.32"/><polygon class="cls-66" points="372.38 339.28 373.36 336.69 375.36 335.59 377.17 336.95 375.1 337.01 372.38 339.28"/><polygon class="cls-66" points="382.22 335.59 383.13 333.71 386.1 333.71 387.92 335.59 384.74 335.01 382.22 335.59"/><polygon class="cls-67" points="377.17 336.95 377.88 338.53 375.88 338.05 372.38 339.28 375.1 337.01 377.17 336.95"/><polygon class="cls-67" points="382.22 335.59 382.22 337.73 384.03 335.59 387.92 335.59 384.74 335.01 382.22 335.59"/><polygon class="cls-67" points="378.85 343.16 380.47 343.62 383.22 340.7 380.41 340.31 379.63 340.97 378.85 343.16"/><polygon class="cls-67" points="378.92 347.82 380.15 346.14 383.06 345.04 385.39 345.43 383.64 346.85 380.73 347.82 378.92 347.82"/><polygon class="cls-68" points="374.24 352.07 377.42 354.73 381.66 356.31 386.76 354.67 392.19 348.8 385.97 353.28 381.04 354.13 374.24 352.07"/><polygon class="cls-69" points="376.99 427.52 386.78 421.37 405.83 423.28 420.44 429.81 422.71 441.79 416.99 449.68 403.38 451.04 389.23 448.32 378.61 443.96 373.17 434.44 374.53 425.73 376.99 427.52"/><polygon class="cls-70" points="378.61 443.96 387.05 443.96 397.94 440.97 405.11 443.96 415.08 440.97 413.21 450.06 403.38 451.04 389.23 448.32 378.61 443.96"/><polygon class="cls-70" points="374.53 425.73 377.43 431.17 386.6 424.09 405.83 423.28 386.78 421.37 376.99 427.52 374.53 425.73"/><polygon class="cls-70" points="416.99 421.37 426.43 428.09 422.5 440.69 420.44 429.81 409.57 424.95 416.99 421.37"/><polygon class="cls-70" points="415.08 413.9 431.47 426.27 438 434.44 432.51 421.37 438 421.37 448.39 424.17 438.23 416.63 415.08 413.9"/><path class="cls-7" d="M365.85,393l6.14,16.9,7,16.4-2,1.25-3.82-10.71-3.92-9-4.34-14.06Z"/><polygon class="cls-69" points="361.52 319.31 359.01 315.32 354.79 312.57 349.75 323.95 355.64 324.52 358.27 327.88 361.52 319.31"/><polygon class="cls-71" points="373.17 302.64 380.1 299.88 388 294.07 390.18 288.13 384.6 274.13 389.29 279.26 391.58 286.79 389.29 294.98 381.79 300.69 373.17 302.64"/><polygon class="cls-72" points="856.32 341.88 864.58 343.41 869.59 350.54 871.83 359.87 869.9 367.36 869.88 375.04 880.46 378.42 892.48 381.89 894.86 382.64 895.36 389.32 890.9 390.39 873.57 390.83 861.59 388.44 858.21 384.43 856.86 378.83 854.86 365.93 853.69 358.31 852.08 352.55 853.86 344.45 856.32 341.88"/><path class="cls-73" d="M827.66,370.84l-5.12-4.48-14.93,6-2.34,20.26,9.38,23.47s19.41-3.42,19.41-4.06-2.13-15.57-2.13-15.57Z"/><polygon class="cls-21" points="865.63 389.82 849.42 391.1 837.48 398.78 827.02 412.43 822.54 428.43 824.04 442.72 829.37 456.16 838.97 467.25 853.48 474.72 868.41 475.57 883.76 467.47 892.19 456.59 898.7 442.3 898.7 424.59 891.23 408.17 878.97 396.86 865.63 389.82"/><path class="cls-30" d="M907.07,461.2l6-1,5.68,2.35,2.78,5.76v6.61l-4.06,4.48-5.33,1.71-7-1.71-3.63-4.05c0-2.42-.07-4.84-.1-7.25l1.63-4.06Z"/><polygon class="cls-74" points="864.65 398.23 851.62 399.26 842.01 405.43 833.61 416.4 830.01 429.27 831.21 440.76 835.5 451.56 843.22 460.48 854.88 466.48 866.88 467.17 879.23 460.65 886 451.9 891.23 440.41 891.23 426.18 885.23 412.98 875.37 403.89 864.65 398.23"/><polygon class="cls-75" points="863.64 406.86 853.87 407.63 846.67 412.26 840.37 420.48 837.67 430.13 838.57 438.74 841.79 446.84 847.57 453.52 856.31 458.02 865.31 458.54 874.57 453.65 879.65 447.09 883.57 438.48 883.57 427.81 879.07 417.91 871.68 411.1 863.64 406.86"/><polygon class="cls-73" points="868.35 427.49 881.21 479.55 914.13 473.3 904.14 444.73 898.06 417.5 879.19 421.11 868.35 427.49"/><path class="cls-76" d="M873.74,315.59l1.07-3.2c-1.14-2.38-2.27-4.77-3.4-7.15l-6.64-2.88-6.88-1.2-11,6.88-5.28,8.24,3.6.8q-.63,4.13-1.28,8.24l2.72-3.76-1.92,6.72,4.09,1,3.84,4.48,8.43-5.76,7.57-11.09Z"/><path class="cls-22" d="M872.75,335h-5.62l-6.62-2.77-4-3h-2.13l-3-1.49v-4.91h4l2.56-2.35.43-7,3.66-3.62H868l4.77,1.92,1,3.84c.26,1,.53,2,.79,2.93l-.48,2.8c.25.93.5,1.87.76,2.8l-.86,6.19Z"/><path class="cls-77" d="M865.21,343.1l4.48,13.23-1.07,12.48-5.55,14.4-2,8.74v7.47l-12.59,3.09-20.8-4.8L826,385.52l1.49-16.71,2.13-20.37,7.9-9,7.68-3.31,6.18-3.94,7.89,5.54Z"/><path class="cls-28" d="M872.75,335,868,337.13l-2.77,6c-.29,1.82-.57,3.63-.86,5.44-1.63-1.81-3.27-3.62-4.9-5.44l-4.27-5.76-2.56-3.62,1.71-4.48h2.13l4,3,6.62,2.77Z"/><path class="cls-73" d="M883.66,425.23l-33.6,5-12.16-6.4s1.28-8.16,2.24-8.32,31-5.76,31-5.76h10.93Z"/><path class="cls-78" d="M901.33,422.51l-3.36,5-5.44-1c-.89-2.69-6.81-19.72-22.84-25a31.19,31.19,0,0,0-11.46-1.44l2.82-3.68,21-1,13.45,1,3,2.35Z"/><path class="cls-79" d="M892,366.12l9.34,6.23,2.81,8.87-1.73,8.59-6.68,6.53-12.15.93-8.79-5.6-2.39-8.37c.4-3.44.81-6.88,1.21-10.32l8.1-5.92Z"/><path class="cls-77" d="M887.26,398.53q1.66,1.75,3.35,3.5l1.92,25.44-6.4,5.28L877.49,427c-.69-2.61-1.39-5.22-2.08-7.84l-14.36,4.05L837.9,420,827,413.39l.54-11.09c.42-2.19.85-4.37,1.28-6.56l18.31,2c4.39.48,7.74.37,14.32.48S876.83,398.44,887.26,398.53Z"/><polygon class="cls-30" points="845.59 404.59 829.61 401.56 816.06 405.83 802.39 416.26 793.86 430.52 791.54 444.7 793.16 459.07 799.5 472.29 811.54 483.31 825.72 488.06 842.67 484.27 853.66 475.99 863.69 463.91 868.35 446.83 865.46 429.02 856.6 414.89 845.59 404.59"/><polygon class="cls-73" points="842.43 412.44 829.58 410.01 818.69 413.44 807.7 421.82 800.84 433.29 798.98 444.69 800.28 456.24 805.38 466.87 815.05 475.73 826.46 479.55 840.08 476.5 848.92 469.85 856.99 460.13 860.73 446.4 858.41 432.08 851.28 420.72 842.43 412.44"/><polygon class="cls-80" points="838.28 422.76 829.55 421.11 822.15 423.44 814.68 429.13 810.02 436.92 808.75 444.67 809.63 452.52 813.1 459.75 819.67 465.77 827.42 468.36 836.68 466.29 842.69 461.77 848.17 455.17 850.71 445.84 849.14 436.11 844.29 428.38 838.28 422.76"/><path class="cls-7" d="M861.05,396.43l.42,1.76-27.41,1-6.4,3.11-.46-7.89s12.84-2.35,13.48-2.35,20.37,1.71,20.37,1.71Z"/><polygon class="cls-32" points="827.66 402.3 817.32 391.21 815.72 376.22 822.54 370.14 827.66 370.83 825.96 385.52 827.2 394.41 827.66 402.3"/><path class="cls-81" d="M851.44,351.63c.12,1.23,7.63,20.91,7.63,20.91l-10.55-11.36Z"/><path class="cls-82" d="M871.13,408.75,864,412.7l-5-3.95-5.28-6.24-8.21,2.08,11,10.3,5.21,8.31,10.24-4.85,9.76-3.36Z"/><polygon class="cls-35" points="856.6 414.89 825.1 454.03 829.61 401.56 845.59 404.59 856.6 414.89"/><polygon class="cls-37" points="822.54 366.36 810.6 374.62 808.75 391.21 816.06 405.83 811.85 409.05 805.27 392.59 807.61 372.33 822.54 366.36"/><polygon class="cls-81" points="837.9 370.14 839.58 380.6 845.59 386.22 847.13 392.58 840.68 392.06 834.92 393.02 839.1 387.7 842.77 387.7 832.06 380.6 831.4 366.36 837.9 370.14"/><polygon class="cls-22" points="874.91 382.21 882.49 379.07 888.18 379.02 890.49 381.32 889.52 385.5 887.74 388.12 881.72 390.44 874.38 389.14 874.91 382.21"/><polygon class="cls-83" points="836.37 341.45 844.64 342.98 849.64 350.11 851.89 359.44 849.96 366.93 849.94 374.61 860.51 377.99 872.54 381.46 874.91 382.21 875.42 388.89 870.96 389.96 853.62 390.4 841.64 388.01 838.26 384 836.92 378.4 834.91 365.5 833.74 357.88 832.14 352.12 833.92 344.02 836.37 341.45"/><polygon class="cls-81" points="838.26 384 841.64 388.01 853.62 390.4 870.96 389.96 854.05 389.23 842.81 386.22 838.26 384"/><path class="cls-84" d="M875.42,388.89l1.29-3.48-1.8-3.2-7.39-2.2,1.39,4.59q-1.12,2.75-2.24,5.49L871,390l3.78-.49Z"/><polygon class="cls-22" points="883.41 379.06 885.65 378.15 887.08 376.47 885.97 375.74 883.07 377.28 878.48 381.28 882.58 380.97 883.41 379.06"/><polygon class="cls-22" points="888.18 379.02 890.74 379.64 894.01 382.33 893.66 384.32 892.32 383.82 893.16 385.07 891.84 387.97 889.58 389.54 888.26 389.32 888.74 390.72 887.65 392.17 886.37 391.59 886.45 390.17 884.01 389.07 887.04 383.02 888.18 379.02"/><polygon class="cls-84" points="852.62 333.72 864.53 351.63 866.66 352.28 865.21 343.1 864.35 348.54 852.62 333.72"/><polygon class="cls-85" points="889.21 473.3 913.7 467.89 916.05 469.92 916.79 472.8 914.66 474.08 890.24 478.88 889.21 473.3"/><path class="cls-30" d="M876.78,468.15l6.05-1,5.68,2.35,2.77,5.76v6.61l-4,4.48-5.33,1.71-7-1.71-3.63-4.05c0-2.42-.07-4.83-.1-7.25l1.63-4.06Z"/><path class="cls-7" d="M877.59,470.11l4.79-.79,4.52,1.86,2.2,4.57V481l-3.22,3.56-4.23,1.35-5.59-1.35-2.88-3.22c0-1.92,0-3.84-.08-5.75l1.3-3.22Z"/><polygon class="cls-85" points="863.7 426.21 871.69 424.59 881.21 462.19 882.83 467.17 878.33 467.89 868.35 429.39 865.65 430.19 863.7 426.21"/><polygon class="cls-85" points="903 439.64 879.48 455.36 881.21 462.19 904.82 446.68 903 439.64"/><polygon class="cls-86" points="881.71 367.06 894.01 368.52 897.73 373.8 899.97 380.01 899.09 386.68 896.77 392.17 883.58 397.27 891.57 395.74 897.65 393.02 900.45 386.22 900.93 378.5 898.7 373.08 895.49 369.08 891.89 367.06 881.71 367.06"/><path class="cls-81" d="M886.13,432.75l3.68-5.92s-1.76-15.57-1.84-15.89-6.26-9.38-6.26-9.38l5.55-3,3.35,3.5,1.92,25.44Z"/><path class="cls-76" d="M869.49,317.56l-.24,1.44-4.88-.86-2.32.7,3.09-2.48Z"/><path class="cls-76" d="M873.49,318.12c-.1.51-.21,1-.32,1.52h1.64c.09-.5.19-1,.28-1.52Z"/><polygon class="cls-28" points="869.25 319 867.65 321.48 866.32 320.24 867.33 320.24 864.37 318.14 869.25 319"/><polygon class="cls-28" points="872.75 326.52 874.13 324.76 870.13 325.16 872.13 325.64 872.75 326.52"/><polygon class="cls-28" points="872.75 329.24 873.17 328.04 868.45 328.64 867.09 329.24 871.25 330.28 872.75 329.24"/><polygon class="cls-28" points="873.17 319.64 874.05 321.32 874.31 319.81 873.17 319.64"/><path class="cls-87" d="M557.17,360.29,553.73,352l-8.54-3.61L535,348.19l-7.35,3.69-18.7,5.75-9.68-.34,4.15,8.21,10.82,4.76,9.15-.46,9.12-2.59,8.18-.49,6.35.37,8-3.67Z"/><polygon class="cls-21" points="538.51 401.79 555.76 403.15 568.48 411.32 579.6 425.85 584.36 442.87 582.77 458.08 577.1 472.38 566.89 484.18 551.45 492.13 535.56 493.04 519.22 484.41 510.26 472.83 503.33 457.63 503.33 438.79 511.28 421.31 524.33 409.28 538.51 401.79"/><path class="cls-87" d="M510.24,358.15l-11.36-5.27-9.91-3-6.91-5.35-4.31-.9c-.3,1.58-.6,3.17-.91,4.76l4.49,5.68,9.39,7.71,14,8.24H517Z"/><polygon class="cls-88" points="543.68 402.2 523.02 399.54 513.83 402.2 513.29 406.15 543.39 408.83 543.68 402.2"/><path class="cls-89" d="M578.92,381.59l5.44-4.77,15.89,6.36,2.5,21.56-10,25s-20.65-3.63-20.65-4.31,2.27-16.57,2.27-16.57Z"/><polygon class="cls-90" points="539.56 410.74 553.43 411.83 563.65 418.4 572.59 430.08 576.42 443.76 575.14 455.99 570.58 467.49 562.37 476.97 549.96 483.36 537.19 484.09 524.05 477.16 516.84 467.85 511.28 455.63 511.28 440.48 517.66 426.43 528.16 416.76 539.56 410.74"/><polygon class="cls-91" points="540.63 419.92 551.03 420.74 558.69 425.66 565.39 434.42 568.26 444.68 567.31 453.84 563.89 462.46 557.73 469.57 548.43 474.36 538.86 474.91 529.01 469.71 523.6 462.73 519.43 453.57 519.43 442.21 524.22 431.68 532.09 424.43 540.63 419.92"/><path class="cls-92" d="M529.89,322.8l-1.14-3.4,3.86-6.13,6.36-2.5,12.21-1.83c.15.72.3,1.44.46,2.16l4.53,1.13c-.22.65-.45,1.29-.68,1.93l1.82,3.18c.23,1.76.45,3.52.68,5.28q.85,3.83,1.7,7.66l-3.24,7.05-4.09,4.76-9-6.12-8-11.81Z"/><path class="cls-22" d="M531,343.46h6l7-2.95c.26-1.52.51-3,.76-4.55l2.73-.23,2.49-6.58-4.53-1.82L542,323.24l.33-6.57H536L531,318.72c-.4.82-.81,1.65-1.21,2.48-.22,1.59-.45,3.18-.68,4.77l.68,2.72-1,3.19.91,6.58Z"/><path class="cls-93" d="M539,352.08l-4.77,14.07,1.14,13.28,5.9,15.32,2.15,9.31V412l13.4,3.3,21.92-.36q1-8.87,2-17.73l-1.59-17.78-2.27-21.67-8.39-9.54-8.18-3.51-6.58-4.2-8.4,5.9Z"/><polygon class="cls-94" points="556.79 415.3 556.01 395.31 562.42 378.01 559.21 393.5 561.07 414.55 556.79 415.3"/><path class="cls-28" d="M531,343.46l5.07,2.27,3,6.35q.45,2.9.91,5.79l5.22-5.79,4.54-6.13,2.72-3.86c-1-2.34-1.91-4.69-2.87-7l-4.31-.91-2,6.35-6.21,3Z"/><polygon class="cls-95" points="494.71 470.11 489.26 470.11 484.27 466.71 493.57 446.5 496.98 426.99 498.57 417.91 501.06 412 512.87 408.83 526.03 408.83 543.39 412 515.82 418.81 507.19 454.45 502.2 457.4 494.71 470.11"/><path class="cls-7" d="M519.33,439.47l35.75,5.28L568,437.94s-1.36-8.69-2.38-8.86-33-6.12-33-6.12H521Z"/><path class="cls-30" d="M494.42,477.75,488,476.69l-6.05,2.5L479,485.32v7l4.31,4.76,5.68,1.82,7.49-1.82c1.28-1.44,2.57-2.87,3.86-4.31,0-2.57.07-5.15.11-7.72l-1.74-4.31Z"/><polygon class="cls-96" points="494.71 470.11 493.12 478.62 491.42 482.6 480.63 481.69 467.92 479.64 460.43 476.35 459.53 472.38 464.06 471.93 472.01 470.11 480.86 468.3 484.27 466.71 489.26 470.11 494.71 470.11"/><polygon class="cls-7" points="471.13 480.16 470.19 484.64 497.41 492.58 500.44 486.37 487.9 482.6 471.13 480.16"/><path class="cls-7" d="M497.41,492.58l18.66-2.72,5.87-18.39q3.87-17.48,7.72-35l-14.75-4.31q-2.83,13.05-5.68,26.1l-11.14,23.15-6.67,6.36Z"/><polygon class="cls-32" points="511.05 487.82 515.51 472.27 523.02 444.75 524.75 435.08 542.58 437.31 522.93 431.39 516.88 439.47 509.52 471.22 506.2 484.09 511.05 487.82"/><polygon class="cls-97" points="511.05 473.74 503.56 473.74 498.57 469.43 492.89 473.74 485.17 476.24 477.23 476.24 473.6 476.24 473.6 479.19 477.91 483.05 486.82 484.87 497.41 486 506.96 487.82 511.05 487.82 511.05 481.46 511.05 473.74"/><path class="cls-98" d="M543.39,412,519,410.64,507.65,412,504,424.94v25.88l-5.44,18.61,5,4.31h7.49l5-13.62,5-20.42,3-12.94,9.08,4.54,23.49,4.54,14-4.32,6.47-8.85.36-7.9-19.88-.27Z"/><polygon class="cls-95" points="523.02 418.73 513.83 422.7 512.58 432.21 515.51 443.33 513.43 459.5 503.56 473.74 508.55 473.74 516.04 460.12 520.64 441.33 522.93 431.39 523.02 418.73"/><polygon class="cls-99" points="559.01 422.25 543.39 419.92 530.46 418.73 523.02 418.73 513.83 422.7 512.58 432.21 513.43 442.2 512.21 459.6 503.56 473.74 506.35 474.65 513.43 459.5 516.11 440.59 514.98 433.32 515.31 426.29 519.43 427.2 516.88 422.96 521.04 422.96 520.88 421.07 530.46 421.07 543.85 423.27 552.36 424.51 559.01 422.25"/><polygon class="cls-30" points="559.85 417.51 576.85 414.29 591.26 418.83 605.81 429.92 614.88 445.09 617.35 460.18 615.63 475.47 608.88 489.55 596.08 501.27 580.99 506.32 562.95 502.29 551.26 493.48 540.58 480.63 535.63 462.45 538.7 443.5 548.13 428.46 559.85 417.51"/><polygon class="cls-7" points="563.21 425.86 576.88 423.27 588.46 426.92 600.16 435.84 607.46 448.04 609.44 460.17 608.06 472.46 602.63 483.78 592.34 493.2 580.2 497.27 565.7 494.03 556.3 486.94 547.72 476.61 543.74 462 546.2 446.76 553.79 434.67 563.21 425.86"/><polygon class="cls-100" points="567.62 436.84 576.91 435.08 584.79 437.56 592.74 443.62 597.69 451.91 599.04 460.16 598.1 468.51 594.41 476.2 587.42 482.6 579.17 485.36 569.32 483.16 562.93 478.35 557.1 471.33 554.39 461.4 556.07 451.04 561.22 442.83 567.62 436.84"/><path class="cls-30" d="M526.65,485.14l-6.43-1.05-6.05,2.5-2.95,6.13v7l4.31,4.77,5.68,1.81,7.49-1.81,3.86-4.31.11-7.72-1.74-4.31Z"/><path class="cls-7" d="M525.68,487.22l-5.1-.83-4.81,2-2.34,4.86v5.59l3.43,3.78,4.5,1.44,5.94-1.44,3.07-3.42.09-6.13-1.38-3.42Z"/><polygon class="cls-32" points="578.92 415.07 589.92 403.27 591.63 387.32 584.36 380.85 578.92 381.59 580.73 397.21 579.41 406.68 578.92 415.07"/><polygon class="cls-35" points="548.13 428.46 581.64 470.11 576.85 414.29 559.85 417.51 548.13 428.46"/><polygon class="cls-37" points="584.36 376.82 597.08 385.62 599.04 403.27 591.26 418.83 595.75 422.25 602.75 404.74 600.25 383.18 584.36 376.82"/><polygon class="cls-88" points="585.27 411.07 579.76 404.17 552.36 401.79 543.39 405.99 545.5 410.61 585.27 414.34 585.27 411.07"/><polygon class="cls-101" points="551.46 371.17 561.07 382.94 572.11 393.5 576.42 376.82 574.13 359.22 559.48 364.08 551.46 371.17"/><path class="cls-22" d="M574.13,359.22l-5.1-7.34-9.11-1.73-7.38,2.26-3.06,9.19q.85,6.13,1.7,12.26v8.51l11.58.68,6.81-6.81,3.06-9.87Z"/><path class="cls-87" d="M471.62,339.06l5.68,2.49L483,352.68,475.09,354l-4.34-4.19-3.21-2.17-1.56-2-1.36-2.39Z"/><polygon class="cls-7" points="573.11 474.61 580.51 467.79 590.32 470.02 586.13 460.88 591.28 452.24 581.28 453.4 574.65 445.83 572.68 455.7 563.43 459.66 572.2 464.59 573.11 474.61"/><polygon class="cls-22" points="528.75 331.88 527.69 334.93 529.73 336.15 531.43 334.93 529.56 334.14 528.75 331.88"/><polygon class="cls-102" points="527.69 334.93 530.95 334.14 529.32 335.96 527.69 334.93"/><polygon class="cls-102" points="529.66 338.46 532.8 338.57 531.23 339.41 529.66 338.46"/><polygon class="cls-103" points="530.19 326.53 529.66 325.23 533.93 324.26 534.95 326.02 530.19 326.53"/><path class="cls-104" d="M467,350.17l4.09-1.83V338L467,336.15l-8.17-11.43-2.27-20.66,10.67-24.94,12.95-11.95,1.16-5.7v-6.16h-3.51v-4.88l5.39,3.36,1.94,7.21-3.67,7.75-11.77,11.62-3.4,26.08-2.57,15.78L472,333.8l3.41.33.3,7.17h.15l-.07,1.86.07,1.87h-.15l-.3,7.16-3.41.34-8.24,11.57,2.57,15.77,3.4,26.09,11.77,11.61,3.67,7.75-1.94,7.21-5.39,3.36V431h3.51v-6.16l-1.16-5.69-12.95-12-10.67-24.93,2.27-20.67Zm-1.81-45.53.8-13.75-4.89,13.75,1.26,8.34Zm.8,90.8-.8-13.75-2.83-8.34-1.26,8.34Z"/><polygon class="cls-105" points="467.23 407.2 472 402.81 480.18 410.3 485.16 425.32 481.35 424.86 467.23 407.2"/><polygon class="cls-87" points="482.06 344.5 479.33 339.06 474.49 336.57 470.86 334.98 469.73 337.3 473.18 339.74 474.49 343.6 477.19 346.55 482.06 344.5"/><polygon class="cls-105" points="467.23 279.12 472 283.51 480.18 276.02 485.16 261 481.35 261.47 467.23 279.12"/><path class="cls-105" d="M485.16,261l40.71,77-40.71,87.34-1.28-2L524.39,338Z"/><polygon class="cls-104" points="524.39 337.98 528.21 337.98 531.23 339.41 523.19 340.51 524.39 337.98"/><rect class="cls-104" x="424.19" y="337.98" width="101.69" height="0.48" transform="translate(950.06 676.44) rotate(180)"/><polygon class="cls-105" points="429.41 338.22 424.19 335.96 415.56 338.46 426.23 340.51 429.41 338.22"/><polygon class="cls-105" points="472 283.51 472 333.8 473.79 333.17 473.79 280.74 472 283.51"/><polygon class="cls-105" points="467 336.15 460.79 331.88 453.47 318.7 456.56 304.06 460.23 314.25 460.96 324.2 467 336.15"/><polygon class="cls-105" points="456.56 320.11 469.73 320.11 469.73 331.88 463.14 331.31 456.56 320.11"/><polygon class="cls-104" points="473.79 325.99 460.23 325.99 461.3 328.18 472.89 329.85 473.79 325.99"/><polygon class="cls-102" points="530.19 326.53 531.23 328.92 530.95 330.79 533.22 327.92 535.52 327.21 530.19 326.53"/><polygon class="cls-106" points="551.18 382.37 558.16 376.36 562.42 379.99 565.82 377.9 569.57 376.24 562.76 383.05 552.36 382.44 551.18 382.37"/><path class="cls-107" d="M1162,305.56l-4.89,3.79-1.1,7.39.54,3.24-5,3.89-6.18,7.43,4.73,4.65,3.66,2.68,8.26-3.17,11.17-9.18s2.25-6.1,2.19-6.45-10.92-6.24-10.92-6.24Z"/><polygon class="cls-44" points="1153.75 338.63 1150.9 341.14 1147.25 339.14 1142.3 335.25 1145.36 331.3 1153.75 338.63"/><polygon class="cls-7" points="1150.9 341.14 1148.29 345.05 1141.11 349.4 1129.81 355.62 1125.63 357.94 1122.59 356.36 1121.8 353.31 1126.03 349.88 1131.98 344.78 1138.27 338.04 1142.3 335.25 1147.25 339.14 1150.9 341.14"/><polygon class="cls-108" points="1142.3 335.25 1140.71 340.65 1144.77 342.95 1143.16 346.2 1134.66 350.25 1132.41 351.72 1133.8 353.43 1128.44 356.38 1125.57 354.55 1124.93 350.78 1126.03 349.88 1124.92 347.46 1127.01 345.57 1130.65 343.79 1131.44 345.24 1138.27 338.04 1142.3 335.25"/><path class="cls-108" d="M1125.9,349.28l-8.49,4.86-7,.95-2.42,4.85,5.31,11.29,6.55,1.5,1,2.13-.76.81-9-1-2-5.85-4.08-6.64,2.57-9.7,5.81-.69,4,.57,8.68-4.48Z"/><polygon class="cls-109" points="1172.53 326.81 1164.96 324.61 1158.85 323.71 1164.03 325.55 1165.25 328.26 1168.38 328.16 1172.53 326.81"/><polygon class="cls-43" points="1204.41 291.51 1201.62 299.7 1199.35 303.04 1204.47 304 1212 305.37 1213.04 308.97 1206.96 309.82 1199.58 309.39 1190.69 307.24 1189.93 304.26 1192.16 298.48 1196.49 293.89 1204.41 291.51"/><polygon class="cls-44" points="1217.22 287.13 1219.8 283.9 1220.81 282.27 1223.15 282.11 1223.06 280.77 1222.89 278.21 1223.83 277.14 1223.71 275.36 1224.66 272.95 1224.45 269.83 1221.54 266.45 1216.64 263.42 1212.08 263.73 1207.86 265.91 1205.96 269.28 1205.35 274.07 1211.23 277.76 1217.22 287.13"/><polygon class="cls-45" points="1205.55 288.52 1209.07 285.57 1212.14 284.64 1217.22 287.13 1214.46 282.58 1213.65 277.16 1210.51 274.75 1208.43 272.7 1204.6 274.41 1201.65 276.62 1204.48 283.92 1205.55 288.52"/><path class="cls-46" d="M1206,283.86l-1,10.63-9.57,8.94-12,6.67-2.11,1-22.19-3.19-2,1.69-.42,2-1.41-.75-.12-2.66,1.76-1.42,14.44-11.09,10.14-11.41,12.63-8.39,9-.6Z"/><path class="cls-43" d="M1212,305.37l2.36-2.14,3.51-1.47,3.57.36.17,1.21a9.85,9.85,0,0,1-3.3.26l-1.45.61,4,1.14,3.54,1.76.73,1.42-.3.78-3.32-1.67-1.31-.25-.05,1.13,3.43,2.35,0,1.77-1.25.93-2-.78-.74.61-3-1.16-3-1.16-1.36-2Z"/><path class="cls-110" d="M1224.66,273l.84-.05-.23-3.4-3.94-4.49-7.15-3.88s-7.34.43-7.44.5-4,1.44-3.64,1.58a29.28,29.28,0,0,1,2.31,1.92l-1.68.78-2.23.15,2.47,1,.6,1.41-.39,1.65.32,1.49.85,2.45,4.54.07,1.77,1.49.19-2.83,1.74-1.9,2.13.41.55,1.53,3-1.93.59-2,2.83.54Z"/><polygon class="cls-111" points="1222.69 269.45 1218.97 265.95 1215.24 265.45 1218.56 267.47 1216.31 267.63 1219.27 270.91 1219.86 268.91 1222.69 269.45"/><polygon class="cls-111" points="1213.59 270.9 1211.37 271.44 1209.89 274.14 1211.66 275.63 1211.85 272.8 1213.59 270.9"/><polygon class="cls-111" points="1211.26 265.29 1207.56 263.53 1203.1 263.21 1205.41 265.13 1209.34 265.84 1211.26 265.29"/><polygon class="cls-112" points="1217.22 287.13 1212.4 282.38 1213.65 277.16 1214.46 282.58 1217.22 287.13"/><path class="cls-113" d="M1158.7,308.27l.45-.68,9.47-1.47,13.38,1.95,16.74,8.67-3.43,3.92-3.19,5.8-.75,2.07L1173,326.29l-9.93-3-3.25-4-1.4-6.84Z"/><polygon class="cls-44" points="1191.37 328.53 1194.78 327.74 1197.27 323.1 1201.73 317.99 1198.74 316.74 1195.31 320.66 1192.12 326.46 1191.37 328.53"/><polygon class="cls-7" points="1194.78 327.74 1196.42 330.54 1197.61 333.25 1196.63 336.9 1195.97 345.55 1195.27 351.79 1198.65 354.55 1201.23 353.92 1203.11 350.22 1204.7 340.61 1206.58 331.87 1209.16 323.76 1208.46 320.45 1204.47 318.81 1201.73 317.99 1197.27 323.1 1194.78 327.74"/><polygon class="cls-108" points="1194.78 327.74 1203.18 322.93 1203.06 321.03 1205.17 320.89 1207.16 323.83 1203.13 338.92 1204.7 340.61 1203.11 350.22 1199.51 349.96 1195.72 347.81 1194.16 345.23 1192.46 344.89 1195.45 337.76 1196.56 337.8 1196.86 336.04 1197.61 333.25 1194.78 327.74"/><polygon class="cls-108" points="1194.16 345.23 1190.8 355.07 1183.6 362.77 1184.03 369.28 1196.4 378.68 1203.73 379.59 1207.35 381.81 1206.07 382.73 1197.33 382.48 1189.26 377.15 1182.34 370.74 1181.73 361.66 1189.13 355.18 1192.93 343.79 1194.16 345.23"/><polygon class="cls-114" points="1205.81 285.79 1197.67 289.05 1190.02 289.56 1183.16 292.45 1178.38 297.44 1174.98 307.05 1168.62 306.12 1174.47 296.67 1180.75 290.18 1186.53 285.74 1188.27 282.35 1188.11 279.85 1189.47 278.95 1189.92 279.15 1192.63 283.24 1200.47 287 1205.81 285.79"/><polygon class="cls-51" points="1205.81 285.79 1197.67 289.05 1193.11 286.02 1189.94 283.85 1189.92 279.15 1192.63 283.24 1200.47 287 1205.81 285.79"/><polygon class="cls-51" points="1184.63 309.43 1179.75 308.73 1168.62 306.12 1182.49 308.32 1184.63 309.43"/><polygon class="cls-51" points="1195.31 320.66 1185.37 320.43 1169.12 313.58 1168.62 306.12 1171.25 306.5 1172.17 312.48 1184.49 317.69 1196.3 319.53 1195.31 320.66"/><path class="cls-44" d="M1206.35,279.22c-.21,2.15-.42,4.31-.64,6.46l-3.73,1.19h-4.89l-6-4.8c-.48-1.16-.95-2.31-1.43-3.46l-6.25-4.4-3.91-3.49-5,3.08-7.79,3.66q-3.11,2.9-6.23,5.77l-3.14-3.8,13.37-13.28,8.37-5.91,4,2.27,4.8,2.7,9.59,6.05,5.2,3Z"/><path class="cls-44" d="M1161.07,282.35c-.37,1.34-.73,2.68-1.09,4l-1.77,4.13-2.5,1.51c-.75-.77,1.09-2.79,1.09-2.79l-.66-1.31c-.59.63-1.18,1.27-1.78,1.9l-3.25,2.95-1.2-.71,0-1.07-1,.83-.84-.9.52-1.45-1,.26c.09-.87.18-1.74.28-2.61,1-1.25,1.9-2.49,2.84-3.74l4.72-3.38,2.81-.82Z"/><polygon class="cls-51" points="1163.28 280.81 1159.42 277.35 1157.24 279.45 1157.73 281.19 1159.24 282.56 1160.49 283.29 1163.28 280.81"/><g class="cls-115"><path class="cls-116" d="M772.57,542.13l26,12.12-10,6,4.72,8.16-17.17,6.09L752,570.71l-28.12-1.27Q719,563.71,714.22,558l28.17-6L675.58,524l35.12-8.79,40.56,2-2.59,12Z"/></g><path class="cls-7" d="M728.87,487.22c0,1.44-.07,2.88-.11,4.32-.31,2.66-.61,5.33-.92,8q4,11.7,7.93,23.39l7.12,5.29,7.54-.65,2.23-6-7.32-23.16-4.17-8.67-2.69-4.42Z"/><path class="cls-117" d="M748.31,473.3l-1.68,9-3.15,5.5c-.06,3.4-.27,7-.68,10.77-.14,1.32-.3,2.62-.48,3.88l-6.56-2-7.25-8.77-3.42-12.57-3.47-9.71,2.11-4.88,12.24.11Z"/><path class="cls-118" d="M721.38,465.5q1.5,3.54,3,7.1l2.34,4.78,8.45,8.28,9.49-4.33,3.9-8.09q-2.38-7.35-4.78-14.7l-4.46-10.92-6,.35-10.4,8.51Z"/><path class="cls-119" d="M748.48,515.59l-6.16,3-6.66-17.81c.39-1.74.77-3.48,1.16-5.22l5.94,1Q745.63,506,748.48,515.59Z"/><g class="cls-120"><path class="cls-119" d="M729.66,462.64c0,3.63-.09,7.25-.13,10.88l5.39,3.69,6.22,2.38,6.25-4.92-2.74,6.66-5.28,1.44-9.87-4.6q-1.5-2.69-3-5.37Z"/></g><path class="cls-118" d="M785.92,359l-3.45,18.37-2.07,3.68,4.37,6.43q6.78,16.88,13.55,33.76l-8.27-.22-19.29-27.8q-1.54-5.37-3.1-10.74L769,363.14l10.61-10.48Z"/><path class="cls-117" d="M775.16,320.57l9.52,4.55q1.89,9.36,3.76,18.74-1.38,10.44-2.75,20.9l-4.55,3.63-8.6-3.37L767,348.71l3.28-14.81Q772.72,327.24,775.16,320.57Z"/><polygon class="cls-121" points="686.09 348.92 675.19 351.04 662.26 349.79 665.33 341.49 681.77 332.35 689.02 333.04 686.09 348.92"/><path class="cls-7" d="M773.29,535.07l2.82,7.47q3.81,5.88,7.63,11.77l-2.16,4L767.25,558q-4.49-9.09-9-18.18l1-4.24c.82-1.74,1.64-3.49,2.47-5.23Z"/><polygon class="cls-117" points="760.1 491 758.52 497.41 758.52 507.53 759.31 516.82 762.34 533.58 766.82 538.06 773.29 535.07 774.12 523.46 777.76 511.35 779.76 503.05 781.58 491 779.76 482.32 777.6 481.49 760.1 491"/><path class="cls-122" d="M767,416l2.74,15.19L778,452.37,780.45,474,777,476.28l-12.7,2.24h-7.72l-4.65-4-5.06-11.19-1.77-.94-3.73-9.83-4.54-4.42-13.64,8.15c-.58,3.07-1.17,6.14-1.75,9.22l-4.45-4.8L699.3,435.37q-1.51-7.32-3-14.63l3-5.28,8.29-6.47Z"/><path class="cls-117" d="M766.22,315.6l15.26,7.79q-.51,6.6-1,13.18l-.75,9.72q-2.61,6.84-5.23,13.69-2,8.58-3.94,17.16-1.77,11.48-3.53,22.93L768.74,420l-7.55,3.26-21.52.66-20.17-1.81L704,419.28l-7.8-5,13.44-64.53-1.83-4.15L717,335.5l3.61-15.76,5.1-7.07,7.54-.56,8.3-.83Z"/><path class="cls-123" d="M761.3,324.81l-2.11,5.39-5.48,5.3h-6l-6.14-6.3-1.82-9.62,1.82-8.3S754,316.92,754,317.42,761.3,324.81,761.3,324.81Z"/><path class="cls-117" d="M725.71,312.82,695.08,323,682,326.42l4.14,22.5,31,2.27,6.74-23.48Z"/><polygon class="cls-118" points="778.43 473.19 778.43 483.31 779.76 492.6 777.27 501.56 770.96 504.88 761.67 497.41 759.18 487.29 757.36 478.34 755.87 476.01 763.66 474.02 778.43 473.19"/><path class="cls-118" d="M695.89,323.66q-2.24,5.11-4.46,10.21l6.1,3.21-8.72,4.8L678.94,348l-8.35,2.3-8.33-.51-3.68-5,1.63-7.28,6.9-6.49,9.5-2.34,9.54-2.05Z"/><polygon class="cls-118" points="691.17 328.45 696.07 321.8 703 318.2 707.39 314.96 713.72 310.87 721.32 310.4 720.24 314.42 716.54 315.33 711.02 327.12 714.31 327.5 718.24 324.6 721.06 325.09 715.63 332.14 706.39 336.88 698.44 336.41 697.53 337.08 691.42 333.87 691.17 328.45"/><polygon class="cls-124" points="716.54 315.33 711.82 316.62 704.11 322.49 699.78 327.71 704.47 330.2 705.05 332.43 707.16 328.69 709.44 327 707.9 324.92 711.31 318.92 716.54 315.33"/><path class="cls-125" d="M744.84,456.85l4.89-4.36L744.12,438l-8.44-10.18-1.81-3.94-1.39,3.94,7.51,9.55,5.92,12.91C745.56,452.48,745.2,454.67,744.84,456.85Z"/><path class="cls-125" d="M750.77,429.85s-3.14,15.49-3.2,14.8,1-13.44,1-13.44l2.72-5.14Z"/><polygon class="cls-125" points="699.3 435.37 703.71 427.41 716.57 425.08 705.49 430.22 699.3 435.37"/><path class="cls-125" d="M721.28,465.51q1.05-4.49,2.12-9l13.39-8.4-16.63,5Q720.71,459.35,721.28,465.51Z"/><path class="cls-119" d="M773.29,535.07l1.38,6.81q1.89,4.18,3.79,8.36l-4.49.49-5.5-10.56L767.22,534l2.83-2.57Z"/><g class="cls-120"><polygon class="cls-119" points="777.27 501.56 770.59 500.96 764.65 493.96 765.34 484.97 767.12 480.06 766.98 476.01 778.43 473.19 763.66 474.02 755.87 476.01 757.36 478.34 761.67 497.41 770.96 504.88 777.27 501.56"/></g><path class="cls-126" d="M761.3,324.81l-5.11,6.57-8.27.51L743,330.4l-1.43-6.07s.07-12.53.08-12.44,1.15,8.31,1.15,8.31l5.74,9,7.77,1.2Z"/><path class="cls-122" d="M761.3,324.81l-2.11,5.39-5.48,5.3h-6l-6.14-6.3-1.89-10,1.89-7.88-2.46.25L738,320.29l2.2,10.11,6.26,6.93L754,338l6.57-6.15L763,324s2.56-7.22,2.49-7-3,6.18-3,6.18Z"/><polygon class="cls-127" points="766.56 297.26 766.44 289.57 763.93 279.94 758.79 273.57 753.9 271.76 756.11 274.96 751.47 273.6 751.97 275.52 748.45 273.19 746.75 276.54 743.99 278.46 744.16 275.16 741.3 278.65 740.42 275.28 736.87 282.04 736.32 279.95 733.39 287.75 735.99 297.7 739.26 303.01 754.55 306.4 766.56 297.26"/><path class="cls-118" d="M762.54,289.74l4,7.52,1,11.74-2.3,10.88q-2.09,4.26-4.16,8.5l-7.81.8-7.83-7.25c-1.15-2.78-2.29-5.55-3.44-8.32L739.26,303l1.51-10,11.64,5.19,5.3-.7Z"/><polygon class="cls-118" points="739.26 303.01 736.55 301.15 735.41 302.73 739.88 312.63 742.03 313.61 739.26 303.01"/><polygon class="cls-118" points="766.56 297.26 767.99 295.51 769.13 296.59 767.34 306.31 766.56 297.26"/><path class="cls-124" d="M759.77,313.91l-.78,3.41-3.6-.37,2.69-1Z"/><polygon class="cls-124" points="759.9 321.46 759.53 319.96 756.33 320.54 754.72 321.89 753.1 321.97 756.21 323.39 759.9 321.46"/><g class="cls-120"><polygon class="cls-119" points="757.71 297.51 751.62 299.71 741.8 295.83 739.26 303.01 740.51 292.66 752.41 298.21 757.71 297.51"/></g><g class="cls-120"><polygon class="cls-119" points="742.03 313.61 741.99 313.27 741.29 307.11 738.55 303.65 736.78 303.27 737.4 305.64 739.07 305.62 741 308.59 742.03 313.61"/></g><polygon class="cls-128" points="766.56 297.26 761.3 303.01 749.98 305.38 739.26 303.01 742.03 313.61 753.1 315.61 756.5 311.28 761.3 313.61 767.57 309 766.56 297.26"/><polygon class="cls-7" points="761.3 313.61 757.58 308.44 753.41 309.46 753.1 315.61 756.5 311.28 761.3 313.61"/><g class="cls-115"><path class="cls-116" d="M723.71,553.84l27.53,12.84L740.64,573l5,8.65-18.19,6.44-25.55-4-29.8-1.35-10.23-12.13,29.86-6.4-70.8-29.61,37.22-9.31,43,2.16-2.74,12.75Z"/></g><path class="cls-129" d="M677.39,495.65c0,1.52-.07,3.05-.11,4.58-.32,2.82-.65,5.64-1,8.47l8.4,24.78,7.54,5.61,8-.69,2.37-6.39q-3.89-12.27-7.76-24.54-2.22-4.59-4.42-9.19l-2.85-4.68Z"/><path class="cls-130" d="M698,480.9c-.6,3.17-1.19,6.34-1.79,9.52l-3.33,5.83c-.07,3.6-.29,7.41-.72,11.41q-.23,2.1-.51,4.11l-6.95-2.11-7.68-9.3-3.63-13.31-3.67-10.3,2.23-5.16,13,.11Z"/><path class="cls-118" d="M669.46,472.63q1.59,3.76,3.17,7.53l2.48,5.07,8.95,8.77,10.06-4.58q2.07-4.31,4.13-8.59-2.54-7.79-5.06-15.57l-4.73-11.57-6.34.37-11,9Z"/><path class="cls-119" d="M698.18,525.71l-6.53,3.15q-3.52-9.43-7.06-18.87l1.23-5.53,6.3,1Z"/><g class="cls-120"><path class="cls-119" d="M678.23,469.61q-.06,5.76-.14,11.52l5.72,3.91,6.59,2.53,6.62-5.21-2.9,7.06-5.6,1.52-10.45-4.88-3.19-5.69Q676.56,475,678.23,469.61Z"/></g><path class="cls-118" d="M739.42,353.71q-.55,8.81-1.1,17.6l-.21,5.39,5.4,4.88c3.15,2.85,6.36,5.41,11.51,9.42,4.22,3.29,9.73,7.49,16.42,12.34l-9.82,4.25-27.41-11.48-15.7-11.42,1.42-20.53,11.24-11.1Z"/><path class="cls-131" d="M726.45,319.06l10.09,4.82q3.08,10.92,6.14,21.84L741.36,365l-8.58,4.75-9.1-3.56q-2.94-8.66-5.86-17.29l3.47-15.7Z"/><polygon class="cls-121" points="632.06 349.1 620.51 351.35 606.82 350.02 610.07 341.22 627.49 331.54 635.17 332.27 632.06 349.1"/><path class="cls-129" d="M724.46,546.36l3,7.91,8.09,12.48L733.25,571l-15.18-.36-9.5-19.26,1-4.49,2.62-5.55Z"/><polygon class="cls-130" points="710.49 499.66 708.82 506.45 708.82 517.18 709.65 527.02 712.86 544.77 717.61 549.52 724.46 546.36 725.34 534.05 729.21 521.22 731.32 512.43 733.25 499.66 731.32 490.46 729.03 489.58 710.49 499.66"/><path class="cls-132" d="M717.8,420.2l2.91,16.09q4.35,11.22,8.71,22.43,1.3,11.49,2.63,23l-3.69,2.38-13.46,2.37h-8.18l-4.93-4.24q-2.68-5.93-5.36-11.86l-1.87-1-4-10.42-4.81-4.68-14.46,8.64c-.61,3.25-1.23,6.51-1.84,9.76l-4.73-5.08-18.7-26.85q-1.59-7.75-3.2-15.5c1.07-1.87,2.14-3.73,3.2-5.6l8.79-6.85Z"/><path class="cls-129" d="M717,313.79l16.18,8.26q-.55,7-1.1,14-.39,5.14-.79,10.29-2.76,7.26-5.54,14.51-2.09,9.09-4.18,18.19-1.86,12.15-3.74,24.3.93,10.54,1.85,21.11l-8,3.46-22.8.7-21.38-1.92-16.42-3-8.26-5.28Q649.92,384.19,657,350l-1.93-4.39,9.66-10.73,3.83-16.69,5.41-7.5,8-.59,8.79-.88Z"/><path class="cls-123" d="M711.76,323.56l-2.24,5.7-5.8,5.62h-6.33l-6.5-6.68L689,318l1.94-8.79s13.18,6,13.18,6.5S711.76,323.56,711.76,323.56Z"/><path class="cls-131" d="M674,310.84l-32.45,10.79-13.91,3.62,4.38,23.85q6.66-1.11,13.47-2.34l7.28-1.37,19.27-18.76Q673.06,318.74,674,310.84Z"/><polygon class="cls-118" points="729.91 480.79 729.91 491.51 731.32 501.36 728.68 510.85 722 514.36 712.16 506.45 709.52 495.73 707.59 486.24 706.01 483.78 714.27 481.67 729.91 480.79"/><path class="cls-118" d="M642.45,322.34q-2.37,5.4-4.73,10.82l6.47,3.39-9.25,5.1-10.45,6.47-8.85,2.45-8.82-.55-3.91-5.29,1.74-7.72,7.3-6.88L622,327.66l10.11-2.18Z"/><polygon class="cls-118" points="637.44 327.41 642.64 320.36 649.98 316.55 654.63 313.12 661.34 308.78 669.4 308.29 668.25 312.55 664.34 313.51 658.48 326 661.97 326.41 666.14 323.33 669.12 323.85 663.36 331.32 653.58 336.34 645.15 335.84 644.19 336.55 637.72 333.16 637.44 327.41"/><polygon class="cls-124" points="664.34 313.51 659.33 314.87 651.16 321.1 646.57 326.62 651.54 329.26 652.16 331.62 654.4 327.66 656.81 325.88 655.18 323.67 658.79 317.31 664.34 313.51"/><path class="cls-133" d="M694.32,463.47l5.18-4.62-5.94-15.33-8.95-10.79-1.92-4.18-1.46,4.18,7.95,10.12,6.28,13.68Z"/><path class="cls-133" d="M700.61,434.86s-3.33,16.41-3.39,15.69,1.1-14.24,1.1-14.24l2.89-5.46Z"/><polygon class="cls-133" points="646.06 440.71 650.74 432.27 664.36 429.8 652.62 435.25 646.06 440.71"/><path class="cls-133" d="M669.35,472.64l2.25-9.5,14.19-8.9-17.62,5.34Q668.75,466.11,669.35,472.64Z"/><g class="cls-134"><polygon class="cls-135" points="666.1 334.88 662.47 346.81 657.31 363.36 656.92 349.12 655.2 345.61 666.1 334.88"/></g><path class="cls-136" d="M672.08,326.63,652,341.12l-20.59,2.74.69,5.24,24.3,1.51,13.91-10.77Q671.17,333.24,672.08,326.63Z"/><path class="cls-119" d="M724.46,546.36l1.47,7.21q2,4.42,4,8.86l-4.75.53q-2.91-5.61-5.83-11.2L718,545.17l3-2.73Z"/><g class="cls-120"><polygon class="cls-119" points="728.68 510.85 721.61 510.21 715.31 502.8 716.04 493.27 717.93 488.06 717.79 483.78 729.91 480.79 714.27 481.67 706.01 483.78 707.59 486.24 712.16 506.45 722 514.36 728.68 510.85"/></g><path class="cls-126" d="M711.76,323.56l-5.41,6.95-8.76.54-5.18-1.58-1.52-6.42s.07-13.28.09-13.19,1.21,8.81,1.21,8.81l6.08,9.53,8.23,1.27Z"/><path class="cls-131" d="M711.76,323.56l-2.24,5.7-5.8,5.62h-6.33l-6.5-6.68-2-10.64,2-8.34-2.61.26L687,318.76l2.33,10.71,6.63,7.35,8,.75,7-6.52,2.67-8.33s2.71-7.65,2.64-7.39-3.21,6.55-3.21,6.55Z"/><path class="cls-118" d="M775.74,405.3l-13.23-7.79c-.62,2.74-1.25,5.49-1.88,8.23q1.47,5.28,3,10.56l7.82,8.8,1.89-1.66c-.69-2-1.37-3.93-2-5.9l-.35-2.18,2.12.39,6,6.09-1,5.08,2.75,1.75,3.52-6.27-1.14-6.92Z"/><polygon class="cls-127" points="717.34 294.36 717.21 286.21 714.55 276.01 709.1 269.25 703.92 267.34 706.26 270.72 701.34 269.28 701.88 271.32 698.14 268.85 696.35 272.4 693.42 274.44 693.6 270.94 690.57 274.64 689.64 271.07 685.87 278.23 685.3 276.02 682.18 284.28 684.94 294.82 688.41 300.46 704.61 304.04 717.34 294.36"/><path class="cls-118" d="M713.08,286.39l4.26,8,1.07,12.44L716,318.33l-4.41,9-8.28.86L695,320.5l-3.65-8.82-2.93-11.22L690,289.87l12.34,5.5,5.62-.74Z"/><polygon class="cls-118" points="688.41 300.46 685.53 298.48 684.33 300.16 689.07 310.64 691.34 311.68 688.41 300.46"/><polygon class="cls-118" points="717.34 294.36 718.85 292.51 720.06 293.65 718.16 303.95 717.34 294.36"/><path class="cls-124" d="M710.14,312c-.27,1.2-.55,2.41-.82,3.61l-3.82-.38,2.85-1.06Z"/><polygon class="cls-124" points="710.28 320 709.89 318.42 706.5 319.03 704.79 320.45 703.07 320.54 706.37 322.05 710.28 320"/><g class="cls-120"><polygon class="cls-119" points="707.96 294.63 701.51 296.95 691.1 292.85 688.41 300.46 689.73 289.48 702.34 295.37 707.96 294.63"/></g><g class="cls-120"><polygon class="cls-119" points="691.34 311.68 691.3 311.32 690.56 304.8 687.66 301.13 685.78 300.73 686.44 303.24 688.2 303.22 690.25 306.37 691.34 311.68"/></g><g class="cls-137"><polygon class="cls-138" points="656.36 350.61 668.17 407.59 648.64 390.29 656.36 350.61"/></g><g class="cls-137"><polygon class="cls-138" points="719.93 364.16 699.21 372.76 676.31 372.76 699.21 386.61 719.93 364.16"/></g><polygon class="cls-128" points="717.34 294.36 710.14 300.46 699.76 301.91 687.84 300.07 691.3 311.32 703.41 313.51 707.82 309.22 710.92 312 718.26 305.08 717.34 294.36"/><polygon class="cls-7" points="703.41 313.51 706.68 306.21 709.08 306.86 710.92 312 707.82 309.22 703.41 313.51"/><circle class="cls-7" cx="767.58" cy="568.1" r="24.3" transform="translate(-54.06 1054.75) rotate(-67.14)"/><path class="cls-139" d="M767.58,593.42a25.32,25.32,0,1,1,25.31-25.32A25.35,25.35,0,0,1,767.58,593.42Zm0-48.61a23.3,23.3,0,1,0,23.29,23.29A23.31,23.31,0,0,0,767.58,544.81Z"/><path class="cls-7" d="M743.15,566.08A28,28,0,0,0,744.6,576a28.3,28.3,0,0,0,4.24,8q.2-2.85.38-5.7L745.87,568Z"/><path class="cls-139" d="M749.21,585.2l-.72-.94a28.35,28.35,0,0,1-5.79-18.2l0-.83,3.51,2.54,3.43,10.47Zm-5.64-18.27a27.5,27.5,0,0,0,4.91,15.81l.29-4.39-3.28-10Z"/><path class="cls-7" d="M757.77,590.64a22.88,22.88,0,0,0,19.11,0l-4.24-2.41H762.26Z"/><path class="cls-139" d="M767.32,593.17h-.19a23.7,23.7,0,0,1-9.55-2.13l-.81-.37,5.38-2.88h10.61l5.09,2.89-.78.36A23.61,23.61,0,0,1,767.32,593.17Zm-8.54-2.58a22.48,22.48,0,0,0,8.36,1.69h.18a22.54,22.54,0,0,0,8.57-1.7l-3.37-1.91H762.37Z"/><path class="cls-7" d="M786.38,583.61l-.7-5.19,3-10.38,2.78-2.34a24,24,0,0,1-5.12,17.91Z"/><path class="cls-139" d="M786.07,584.69l-.84-6.3,3.1-10.6,3.51-3,.1.82a24.36,24.36,0,0,1-.58,9,24.66,24.66,0,0,1-4.64,9.28Zm.06-6.24.54,4a23.54,23.54,0,0,0,4.48-15.91l-2,1.71Z"/><path class="cls-7" d="M787.7,554.78a22,22,0,0,0-5.94-6.8,22.18,22.18,0,0,0-8.8-4l2.91,2.85,8.29,6Z"/><path class="cls-139" d="M788.85,555.91l-5-2.7-8.34-6.06-4-3.9,1.49.31a22.49,22.49,0,0,1,15,11Zm-4.45-3.43,2.06,1.12a21.6,21.6,0,0,0-12-8.79l1.73,1.69Z"/><path class="cls-7" d="M762.26,544a26.76,26.76,0,0,0-9.11,4.37,26.46,26.46,0,0,0-5.7,5.76l3.42-1.33,8.29-6.27Z"/><path class="cls-139" d="M746.21,555.07l.88-1.21a27,27,0,0,1,15.06-10.3l2-.52-4.68,3.82L751,553.2Zm14-10a26.11,26.11,0,0,0-11.45,8l1.88-.73,8.24-6.23Z"/><polygon class="cls-139" points="767.2 556.97 775.87 563.04 772.64 572.79 762.26 572.79 758.78 563.04 767.2 556.97"/><path class="cls-139" d="M773,573.23H762l-3.7-10.35,8.94-6.46,9.2,6.45Zm-10.39-.89h9.75l3-9.13-8.14-5.7-7.89,5.7Z"/><path class="cls-7" d="M758.78,563l-7.91-2.21v-7.92l8.37-6.3,8.08,2.38-.12,8Z"/><path class="cls-139" d="M758.87,563.52l-8.44-2.36v-8.47l8.73-6.57,8.61,2.54-.13,8.53Zm-7.56-3,7.38,2.07,8.07-5.82.12-7.42-7.55-2.23-8,6Z"/><path class="cls-7" d="M775.87,563l8-2.28c.11-2.59.21-5.19.32-7.78l-8.44-6.08-8.4,2.09-.12,8Z"/><path class="cls-139" d="M775.79,563.52l-9-6.33.14-8.55,8.92-2.22,8.8,6.34-.34,8.34Zm-8.15-6.78,8.31,5.82,7.46-2.14.3-7.22-8.08-5.82-7.87,2Z"/><path class="cls-139" d="M759.16,546.52l3.1-2.53a32.74,32.74,0,0,1,10.7,0l2.91,2.85L767.32,549Z"/><path class="cls-139" d="M767.31,549.45l-9.08-2.75,3.84-3.13.12,0a34.79,34.79,0,0,1,5.39-.45,32.94,32.94,0,0,1,5.45.45l.14,0,3.57,3.49Zm-7.23-3.11,7.26,2.19L775,546.6l-2.24-2.2a32.79,32.79,0,0,0-5.14-.41,31.61,31.61,0,0,0-5.16.42Z"/><path class="cls-139" d="M750.87,552.79l-3.42,1.33a26.37,26.37,0,0,0-4.3,12l2.72,2,5-7.21Z"/><path class="cls-139" d="M746,568.66l-3.3-2.37,0-.26a26.77,26.77,0,0,1,4.37-12.16l.08-.12,4.15-1.61V561Zm-2.37-2.79,2.15,1.55,4.67-6.73v-7.26l-2.69,1.05a25.88,25.88,0,0,0-4.13,11.39Z"/><path class="cls-139" d="M784.16,552.85l3.54,1.93a17.77,17.77,0,0,1,3.8,10.92L788.72,568l-4.88-7.28Z"/><path class="cls-139" d="M788.62,568.7l-5.22-7.81.35-8.77,4.25,2.32,0,.07a18,18,0,0,1,2.73,4.83A18.33,18.33,0,0,1,792,565.7v.2Zm-4.33-8.06,4.52,6.74,2.25-1.89a17.39,17.39,0,0,0-1.11-5.84,17.06,17.06,0,0,0-2.54-4.52l-2.84-1.55Z"/><path class="cls-7" d="M758.78,563l3.48,9.75-5.13,7.72-7.8-2.13L745.91,568q2.48-3.59,5-7.15Z"/><path class="cls-139" d="M757.33,581,749,578.74l-3.56-10.83,5.26-7.6,8.44,2.37,3.63,10.17Zm-7.66-3,7.27,2,4.83-7.27-3.33-9.32-7.39-2.07-4.65,6.71Z"/><path class="cls-7" d="M772.64,572.79l5,7.72,8-2L788.68,568q-2.43-3.62-4.84-7.24l-8,2.28Z"/><path class="cls-139" d="M777.44,581l-5.29-8.17,3.37-10.17,8.51-2.43,5.13,7.67L786,578.83Zm-4.31-8.29,4.71,7.27,7.42-1.9,2.93-10-4.54-6.79-7.43,2.12Z"/><path class="cls-7" d="M757.13,580.51l5,7.68,10.57-.06q2.49-3.81,5-7.62l-5-7.72H762.26Z"/><path class="cls-139" d="M761.87,588.63l-5.27-8.12,5.42-8.17h10.86l5.29,8.17-5.25,8.06Zm-4.21-8.12,4.69,7.23,10.09-.06,4.67-7.17-4.71-7.28h-9.9Z"/><path class="cls-139" d="M749.22,578.29l-.38,5.7a28.11,28.11,0,0,0,8.93,6.65l4.49-2.41-5.13-7.72Z"/><path class="cls-139" d="M757.78,591.13l-.2-.09a28.57,28.57,0,0,1-9.07-6.75l-.12-.14.43-6.43,8.59,2.41,5.49,8.26Zm-8.48-7.3a27.47,27.47,0,0,0,8.46,6.31l3.86-2.07-4.76-7.18-7.23-2Z"/><path class="cls-139" d="M772.64,588.23l4.24,2.41a20.71,20.71,0,0,0,4.88-2.54,20.43,20.43,0,0,0,4.62-4.49c-.24-1.73-.47-3.46-.7-5.19l-8,2.09Z"/><path class="cls-139" d="M776.84,591.12,772,588.39l5.35-8.27,8.69-2.25.79,5.85-.11.16a21,21,0,0,1-4.72,4.59,20.66,20.66,0,0,1-5,2.58Zm-3.57-3,3.65,2.07a19.65,19.65,0,0,0,4.58-2.41,20,20,0,0,0,4.41-4.25l-.6-4.51-7.39,1.92Z"/><g class="cls-115"><polygon class="cls-116" points="781.61 582.28 767.2 580.49 755.55 570.58 754.09 556.16 745.23 566.08 747.45 576.77 756.75 586.1 766.96 588.23 781.61 582.28"/></g><path class="cls-118" d="M798.32,421.26l4.6,16.54-5.75,10.34-4.82,2.43L791,448.14l2.3-4.38c.76-2,1.53-4,2.29-6l-.45-3-3.91-2.76v7.35l-2.76,1-1.14-12.22,2.75-7.12Z"/><path class="cls-49" d="M976.61,358.84l-4.43,1.63-2.08,3.32,1.88,4L977.2,373l3.12,4.5L986,382l3.78-1.06-1.53-3.19L985,369.64l-.52-5.39Z"/><polygon class="cls-140" points="999.02 323.46 1002.21 327.72 1005.01 332.06 995.11 340.21 989.64 347.57 979.41 357.4 976.61 358.84 976.09 362.88 978.5 366.13 984.1 365.68 986.97 361.57 999.22 351.67 1013.35 341.51 1018.83 337.54 1020.13 334.93 1019.6 331.02 1017.78 326.33 1013.35 317.47 1010.42 319.88 1000.85 321.77 999.02 323.46"/><polygon class="cls-47" points="995.11 340.21 990.28 346.7 996.48 342.55 1006.12 336.54 1006.12 333.43 1007.69 334.73 1006.12 331.22 999.02 323.46 1005.01 332.06 995.11 340.21"/><polygon class="cls-141" points="1014.58 319.93 1009.82 323.46 1001.89 326.59 998.11 327.21 992.03 315.91 987.55 312.84 983.19 302.92 987.43 295.35 1008.21 306 1014.58 313.78 1014.58 319.93"/><polygon class="cls-142" points="979.19 375.91 977.78 376.62 977.26 378.64 982.28 383.27 984.04 383.27 985.47 381.31 980.58 376.17 979.19 375.91"/><path class="cls-143" d="M1043.19,320.37l10.46-.59V314.7l-11.11.84-3,.49c.15,1.74.3,3.48.46,5.22Z"/><polygon class="cls-143" points="994.14 377.03 995.05 380.08 999.48 381.77 1004.17 382.23 1009.25 379.78 1011.92 375.91 1011.92 370.69 1010.03 366.13 1004.75 362.81 999.28 361.83 996.81 363.27 993.55 366.46 992.64 373.5 994.14 377.03"/><path class="cls-144" d="M929.86,353.27l5.87-7.46,6.77-5.8,5-2.34,7.85-1.93,9.51.56,9.65,2.83,7.81,4.24,7.17,7.91,4,9.12,1.3,10.15-2,9.66-5.87,9.64-7.68,7.3-9.91,4-11.07.92-8-1.57-7.89-3.25-7.16-5.87L930,383.79l-3-10.2v-11Zm2.95,19.07,2.44,8.3,4.35,6.21,5.84,4.77,6.42,2.66,6.52,1.27,9-.74,8.07-3.29,6.26-5.95,4.78-7.85,1.59-7.87L987,361.59l-3.29-7.43-5.84-6.44-6.37-3.45L963.69,342l-7.75-.45-6.39,1.56L945.44,345l-5.52,4.73-4.78,6.07-2.33,7.62Z"/><path class="cls-145" d="M938.21,357.47,942.5,352l5-4.24,3.69-1.72,5.74-1.4,7,.4,7,2.07,5.71,3.1,5.25,5.79,2.95,6.67,1,7.42-1.43,7.06L980,384.23l-5.62,5.33-7.24,3-8.1.66L953.22,392l-5.76-2.38-5.24-4.29-3.91-5.58-2.19-7.45v-8Zm2.16,13.95,1.78,6.07,3.18,4.54,4.27,3.49,4.7,1.94,4.77.93,6.6-.54,5.9-2.4,4.57-4.35,3.5-5.74,1.16-5.76-.78-6-2.4-5.43-4.27-4.72-4.66-2.52L963,349.2l-5.66-.33L952.61,350l-3,1.4-4,3.45-3.5,4.44-1.7,5.57Z"/><path class="cls-145" d="M1037.82,356.1l4.28-5.45,5-4.24,3.69-1.72,5.74-1.4,7,.4,7,2.08,5.72,3.09,5.24,5.79,3,6.67,1,7.42-1.43,7.07-4.29,7.05-5.62,5.33-7.25,3-8.1.66-5.86-1.14-5.76-2.38-5.24-4.29-3.91-5.57-2.19-7.46v-8Zm2.15,13.95,1.79,6.07,3.18,4.54,4.27,3.5,4.69,1.94,4.77.93,6.6-.55,5.9-2.4,4.58-4.35,3.49-5.74,1.16-5.75-.77-6.05-2.41-5.43-4.27-4.71-4.65-2.53-5.75-1.68-5.66-.33-4.68,1.14-3,1.4-4,3.45-3.49,4.44-1.71,5.57Z"/><path class="cls-144" d="M1029.71,351.7l5.86-7.45,6.77-5.8,5.05-2.35,7.85-1.92,9.52.55,9.64,2.84,7.82,4.23,7.16,7.92,4,9.12,1.3,10.14-2,9.66-5.86,9.65-7.69,7.29-9.9,4-11.08.91-8-1.56-7.89-3.26-7.16-5.86-5.34-7.62-3-10.2v-11Zm3.43,19.46,2.44,8.31,4.35,6.21,5.84,4.77,6.42,2.65,6.52,1.28,9-.75,8.07-3.29,6.26-5.94,4.77-7.85,1.6-7.87-1.07-8.26-3.29-7.43-5.83-6.45-6.37-3.44-7.85-2.31-7.75-.45-6.39,1.56-4.11,1.91-5.52,4.72-4.78,6.08-2.33,7.61Z"/><polygon class="cls-146" points="981.59 299.26 973.32 298.09 971.56 299.26 972.15 301.51 976.58 303.66 984.17 306 988.96 305.22 981.59 299.26"/><polygon class="cls-144" points="982.7 304.93 979.38 306 981.04 340.5 985.6 339.91 986.12 307.18 982.7 304.93"/><polygon class="cls-147" points="1046.71 270.43 1043.58 271.12 1040.75 270.43 1042.21 274.6 1044.66 277.86 1045.93 282.55 1046.71 285.29 1048.53 284.7 1048.53 274.6 1046.71 270.43"/><path class="cls-49" d="M1040.75,270.43l-4.79-2.67-11.79-2.8-9.58-.46-15.31,6.32-13.85,5.54-3.2,4.27,3.37,2.12,6.52,4.49,7.36,5.93,3.71,5.47,1.11,2.28,8.2-4.29,8.14-2.53,7.05-.74,6.12-1.3,10.49-8.46.36-8.33Z"/><path class="cls-140" d="M1063.43,282l3.12.79.78-7.24,1.27-1.36-10.95-4.4-2.8,5.18-5.31,2v5.52l4.5,3.42,3.61,2.93,1.76-.58,1.37-2.93,1.37-1Z"/><polygon class="cls-146" points="1059.41 271.61 1054.53 279.42 1050.03 278.06 1046.71 270.43 1046.71 266.33 1054.53 268.09 1059.41 271.61"/><path class="cls-148" d="M1059.41,271.6l10,3.91,3.13-7.23-3.13-7.42L1061,256h-10.56l-8.35,3.13-.2,4.73,4.84,2.5Z"/><polygon class="cls-146" points="1048.53 274.6 1048.53 284.7 1051.6 285.87 1054.53 279.42 1053.06 278.98 1050.62 282.55 1050.03 278.06 1048.53 274.6"/><polygon class="cls-146" points="1052.05 284.88 1054.53 287.63 1057.65 288.8 1052.63 283.61 1052.05 284.88"/><polygon class="cls-149" points="1068.01 275.51 1067.33 277.86 1064.69 278.93 1062.93 278.93 1061.86 276.3 1060.98 274.6 1060.98 273.75 1058.85 272.5 1059.41 271.61 1068.01 275.51"/><path class="cls-150" d="M1035.57,291.34l-1.76.72-6.25-2.6-4.43-4.17-.85-5.87,2.8-5.73,8.64-2.42,6.67.33,1.76,1.7,2.51,4.56Z"/><path class="cls-143" d="M1041.16,316.26q2.43,9.24,4.87,18.47l-3.52,1.37-5.24-17.83Z"/><path class="cls-151" d="M1039.87,320.37h3.32l.57,3.69q1.18,3.6,2.36,7.2c-.19.39-.39.79-.59,1.18l-5.37.63-34.49,39.78-4.11,1.79-1.56-3.23,1.76-1.93,16.69-16.69,15.9-22,2.29-3,1.73-5.09Z"/><path class="cls-151" d="M1039.86,322.52l-43.93-1.42-11.57-2.59c.43,1.89.87,3.78,1.3,5.66l21,2.35,32.75,1.08,1.65-1.18C1040.65,325.12,1040.26,323.82,1039.86,322.52Z"/><path class="cls-151" d="M981,340.5l2.72,3.24.18.21,7.86,8,3.66,13.34-.84,4.35,2.74.42,4.13.64.07,0,2.72-2-5.55-5.43q-4.07-9.78-8.11-19.55l-5.15-6.15-3,2Z"/><polygon class="cls-151" points="981.04 338.45 957.49 369.62 959.35 371.41 985.47 341.8 981.04 338.45"/><polygon class="cls-151" points="959.35 371.41 960.81 372.75 1000 374.02 1001.49 370.68 1001.89 369.8 1001.89 369.8 997.36 369.69 994.62 369.62 984.77 369.48 961.34 369.15 959.93 369.13 959.35 371.41"/><polygon class="cls-142" points="961.38 364.47 964.36 366.13 965.47 369.13 964.75 371.57 961.38 373.5 958.56 372.91 957.07 370.04 957.07 367.44 957.98 365.81 961.38 364.47"/><path class="cls-152" d="M994.62,369.62l-9.85-.14,2.19,1.93s7.7.72,8.21.62a11.65,11.65,0,0,0,2.19-1.33,27.67,27.67,0,0,0,0-4.56,28.32,28.32,0,0,0-1.43-6.78l-7.4-13.68-4.37-2.39h0l-.22.66,2.18,2.61,4.59,7.52,3.13,6.45.78,4.89Z"/><polygon class="cls-142" points="962.02 377.34 959.35 379.1 959.35 380.99 961.27 382.23 964.04 380.92 963.58 378.97 962.02 377.34"/><polygon class="cls-146" points="962.24 381.77 1004.17 382.23 1003.22 382.68 961.27 382.23 962.24 381.77"/><polygon class="cls-143" points="1046.03 334.73 1046.42 338.45 1061.76 368.35 1061.17 370.69 1059.41 370.69 1056.87 368.98 1054.33 363.95 1044.66 345.19 1041.34 339.81 1042.51 336.1 1046.03 334.73"/><polygon class="cls-153" points="1050.62 331.7 1047.9 332.49 1047.39 334.73 1049.01 339.33 1050.62 341.38 1053.06 339.81 1051.55 336.54 1050.72 333.66 1050.62 331.7"/><path class="cls-143" d="M1057.36,308.35h-3.91l-1.9,2.64-1.32,7,.58,4.69,4.11.75,2.42-2.12,2.25-2.13,1.47-2.63-5.26.47-.1-2.84.54-3.61Z"/><path class="cls-154" d="M1035.22,291.49l-3.76-3s-3-4.11-3.19-4.24-2.86-4.3-2.86-4.3l4.23,3.13,2.74.53,1.95,4.1Z"/><polygon class="cls-47" points="1066.55 282.75 1062.93 281.48 1062.77 282.11 1063.43 281.96 1066.55 282.75"/><polygon class="cls-47" points="1062.15 284.31 1059.61 284.15 1061.19 285 1062.15 284.31"/><path class="cls-155" d="M1067.62,274.81q0-3.85-.1-7.7l-6.64-6.55-10.65-1.37,8,3.33,5.19,5.57c.1,1.73.21,3.47.31,5.2Z"/><polygon class="cls-50" points="981.56 287.44 994.88 292.06 999.51 295.35 1005.08 281.83 1019.6 273.69 1017.49 268.09 1003.22 272.88 988.53 283.61 981.56 287.44"/><polygon class="cls-50" points="1033.81 292.06 1027.56 289.46 1023.13 285.29 1022.28 279.42 1025.08 273.69 1033.81 271.61 1040.39 271.61 1042.15 273.3 1044.66 277.86 1044.66 275.27 1040.75 270.43 1035.96 267.76 1030.31 269.75 1023.06 271.61 1019.6 276.1 1018.13 282.71 1020.13 288.8 1023.06 291.08 1026.19 291.49 1027.69 293.36 1033.81 292.06"/><polygon class="cls-52" points="1020.13 288.8 1010.42 288.8 999.51 295.35 1005.08 281.83 1019.6 273.69 1019.6 276.1 1018.13 282.11 1020.13 288.8"/><polygon class="cls-151" points="994.28 373.5 997.13 378.45 1001.56 379.23 1006.12 376.36 1006.12 370.11 996.94 369.13 994.28 373.5"/><polygon class="cls-142" points="997 373.63 998.96 371.41 1001.24 371.41 1002.8 373.04 1002.34 375.91 999.54 376.88 997.85 376.36 997 373.63"/><path class="cls-153" d="M1040.16,333.07l-4.79-4.07-6.35,5.18-10.85,18.93H1024Z"/><polygon class="cls-153" points="976.09 303.42 979.38 306 979.8 314.7 983.19 314.36 983.13 307.76 981.63 305.18 976.09 303.42"/><polygon class="cls-156" points="1035.96 267.76 1022.28 266.9 1013.35 266.9 999.28 270.82 1014.59 264.5 1024.17 264.96 1035.96 267.76"/><polygon class="cls-156" points="1072.51 268.28 1068.01 261.51 1059.61 257.73 1050.42 255.97 1060.98 255.97 1069.38 260.86 1072.51 268.28"/><polygon class="cls-47" points="1057.65 277.4 1058.31 280.56 1057.98 282.75 1057.26 280.07 1057.65 277.4"/><polygon class="cls-157" points="1064 273.69 1063.71 276.82 1062.93 278.93 1064.69 278.93 1064.69 277.4 1064 273.69"/><polygon class="cls-156" points="1050.23 259.19 1059.61 262.13 1064.69 268.28 1064.47 273.58 1063.74 273.29 1063.43 268.09 1058.24 262.52 1050.23 259.19"/><polygon class="cls-57" points="1035.22 291.49 1035.15 291.22 1034.33 287.7 1032.38 283.61 1033.47 287.44 1035.22 291.49"/><polygon class="cls-57" points="1048.53 284.7 1047.59 280.56 1047.59 276.59 1048.53 280.64 1048.53 284.7"/><path class="cls-152" d="M1000.94,326.21l-16.46-6.88-1.29-5-.07-6.6,3,2.25c0,2.71-.07,5.43-.11,8.14l9.66,2.13,2.44,3.18H999Z"/><path class="cls-152" d="M1039.87,320.37V325l-23.74-2.08c-.23-.49-.46-1-.68-1.47l22.92,1.22Z"/><polygon class="cls-158" points="1018.17 353.11 1025.11 349.2 1040.16 333.07 1023.95 353.11 1018.17 353.11"/><path class="cls-142" d="M961.27,371.41c.18.24,2.31,7.56,2.31,7.56h-1.89l-2.34-7.56Z"/><path class="cls-159" d="M1018.25,304l11.33,5.8,3.36,2.55c.17,1.17.35,2.34.53,3.51l-.77,3.45-3.12,4.89-5.74,10-5.08,7.88-3.13,10.55,5.54,6.13,6.58,3.39.52,2.54-6.77,1.5-7.63-2.35-8.66-3.13-2.41-1.3,3.45-8.93,3.65-8.14q1.83-6.87,3.67-13.75l2.67-7.08,1.89-2.68-7.24-.63-11.65-3.66,2-7,5.78-6.61Z"/><path class="cls-49" d="M1015.63,352.58h-5.34l-4-2.15-3.25,8.41.26,1.17,10.68,4,7.56,2.09,7.74-.75c.31-1.06.62-2.13.94-3.19l-9.07-3.75Z"/><path class="cls-49" d="M1019.2,304.22l-4,1.77-4.6,4.6q-.72,3.21-1.42,6.42l-.83,2.09-13.11-5.2-9.1-5.55-8.86-7.43-1.17-2.44,1.17-7.57,8.34-8.16,16.29,9.31,3.84,6,3.55,1.29Z"/><path class="cls-160" d="M1019.2,304.22s11.36,8.26,11.11,8.62,0,5.67,0,5.67l-2.66,8.7,5-7.92.77-3.45-.53-3.51-3.36-2.55Z"/><polygon class="cls-47" points="1010.58 310.59 1018.17 314.36 1022.28 318.51 1019.6 320.37 1020.61 321.93 1014.07 327.21 1016.25 321.46 1018.13 318.78 1010.89 318.15 1009.16 317.01 1010.58 310.59"/><polygon class="cls-142" points="1016.59 364.78 1015.45 367.36 1006.12 364.47 1006.91 361.26 1016.59 364.78"/><polygon class="cls-142" points="1011.92 366.13 1002.8 373.04 1001.24 371.41 1009.75 364.31 1011.92 366.13"/><polygon class="cls-142" points="1019.2 304.22 1015.18 305.99 1000.94 299.73 1005.73 298.08 1009.82 299.49 1019.2 304.22"/><polygon class="cls-50" points="992.03 290.28 995.46 299.61 1005.5 308.35 983.94 298.09 981.56 287.44 987.43 287.44 986.12 283.61 987.8 284 1001.38 291.77 992.03 290.28"/><polygon class="cls-50" points="1008.33 319.1 995.93 311.28 988.02 307.05 996.05 313.07 1008.33 319.1"/><path class="cls-140" d="M1046.71,285.29l0,3.71.2,4q.7,3.6,1.4,7.2l2.1,6.8,2,1.93,5.21.66,4.5.65,1.28,2.54-.69,3.58-5.09.65h-12.18l-2.73-.84-2.2-4c-.86-2.27-1.73-4.53-2.6-6.8l-3-7.5c0-1.66-.08-3.4-.2-5.2s-.29-3.76-.5-5.5l-3-4.6c.37-2.2.73-4.4,1.1-6.6l4.73-2.31,6,.21q1.26,2,2.5,3.9Z"/><polygon class="cls-50" points="1057.36 308.35 1057.65 309.59 1055.96 312.44 1055.8 317.05 1054.85 320.37 1050.52 320.37 1050.23 318.02 1051.55 310.99 1053.45 308.35 1057.36 308.35"/><path class="cls-47" d="M1032.38,283.6l1.95,4.1,1.39,4.36.63,8.14,4.4,9.65-2-7.63-.61-8.63,2.57-.23-3.49-3.32-2-7.33,1.85-9-4.73,2.31C1032.35,278.53,1032.36,281.07,1032.38,283.6Z"/></g></g></svg>