<svg xmlns="http://www.w3.org/2000/svg" xmlns:xlink="http://www.w3.org/1999/xlink" viewBox="0 0 170.46 258.05"><defs><style>.cls-1{fill:none;}.cls-2{isolation:isolate;}.cls-3{fill:#fff;}.cls-4{clip-path:url(#clip-path);}.cls-5{fill:#4b4b9b;}.cls-6{fill:url(#linear-gradient);}.cls-7{fill:#e2e2e2;mix-blend-mode:multiply;}</style><clipPath id="clip-path" transform="translate(-0.04 0.38)"><polygon class="cls-1" points="170.37 257.86 0 257.86 0 0 0 0 170.37 0 170.37 257.86"/></clipPath><linearGradient id="linear-gradient" x1="0.12" y1="66.8" x2="133.09" y2="66.8" gradientUnits="userSpaceOnUse"><stop offset="0" stop-color="#312f7f"/><stop offset="1" stop-color="#4b4b9b"/></linearGradient></defs><g class="cls-2"><g id="Layer_2" data-name="Layer 2"><g id="PRINT_1" data-name="PRINT 1"><rect class="cls-3" y="8.68" width="170.33" height="249.37"/><g class="cls-4"><path class="cls-5" d="M45.37,2.29c5.6,8.39,16.72,27.86,25.08,33.5A43.18,43.18,0,0,0,79,40.42a41.58,41.58,0,0,0,11.14,2.39,57.94,57.94,0,0,0,18.76-1.12c4.38-1,8.6-2.66,12.91-4a90,90,0,0,1,23.1-3.79,30.69,30.69,0,0,1,11.61,1.37c3.68,1.35,7,4.08,8.3,7.79,0-.39,5.35-.66,5.35-1.05V6.21C168.66,5.65,171.61,0,170,0L48.74,0a.58.58,0,0,0-.38-.32c-1.14-.28-2.09.85-2.71,1.85C45.38,2,45.65,1.85,45.37,2.29Z" transform="translate(-0.04 0.38)"/><path class="cls-6" d="M114.46,46.47v0l-.62-.45c-.44-.34-.9-.67-1.36-1C102.62,37.75,52.77,1.19,52,.42S.2,0,.2,0L.12,70.67l48.51,47.65a48.86,48.86,0,1,0,65.83-71.85Z" transform="translate(-0.04 0.38)"/><circle class="cls-7" cx="86.87" cy="88.91" r="38.4" transform="translate(-27.93 41.52) rotate(-23.07)"/></g></g></g></g></svg>