<svg xmlns="http://www.w3.org/2000/svg" viewBox="0 0 281.86 187.11"><defs><style>.cls-1{fill:#b9eeff;}.cls-2{fill:#1078ff;}.cls-3{fill:#50d5ff;}.cls-4{fill:#f5cc64;}.cls-5{fill:#312f7f;}</style></defs><g id="Layer_2" data-name="Layer 2"><g id="Layer_1-2" data-name="Layer 1"><path class="cls-1" d="M245.08,94.74l-12.15,8.8a2.21,2.21,0,0,0-.8,2.43l4.67,14.27-12.14-8.81a2.22,2.22,0,0,0-2.58,0l-12.14,8.81L214.61,106a2.21,2.21,0,0,0-.8-2.43l-12.15-8.8h15a2.21,2.21,0,0,0,2.09-1.53L223.37,79,228,93.21a2.16,2.16,0,0,0,2.05,1.53Z"/><path class="cls-2" d="M236.87,122.55h-.07a2.28,2.28,0,0,1-1.36-.44l-12.14-8.8-12,8.8a2.31,2.31,0,0,1-3.56-2.59l4.67-14.27-12.1-8.63a2.32,2.32,0,0,1,1.35-4.2h15l4.51-14.18a2.32,2.32,0,0,1,2.2-1.61h0a2.31,2.31,0,0,1,2.2,1.6l4.66,14.26,14.85-.07a2.32,2.32,0,0,1,1.35,4.2l-12.14,8.79L238.83,119a2.37,2.37,0,0,1,.36,1.24A2.31,2.31,0,0,1,236.87,122.55ZM208.81,97.06l6.36,4.6a4.54,4.54,0,0,1,1.65,5l-2.46,7.52,6.36-4.61a4.6,4.6,0,0,1,5.3,0l6.36,4.61-2.45-7.48a4.54,4.54,0,0,1,1.64-5l6.36-4.61h-7.85a4.46,4.46,0,0,1-4.26-3.17l-2.44-7.46L221,93.92a4.54,4.54,0,0,1-4.29,3.14Z"/><path class="cls-3" d="M263.76,161.25c1.14,2.85-.32,4.76-2.33,3l-15.49-12.31-3.09,17.64c-.28,2.43-2.85,1.63-4.07-1.18l-13.63-31.9v-.21A34.86,34.86,0,0,0,249,125.14l.28.28Z"/><path class="cls-2" d="M241.61,173.32c-2,0-3.9-1.58-5-4L223,137.39a2.15,2.15,0,0,1-.19-.91A2.52,2.52,0,0,1,225,134a32.44,32.44,0,0,0,22.24-10.39,2.34,2.34,0,0,1,1.66-.75,2.42,2.42,0,0,1,1.68.69l.28.28a2.42,2.42,0,0,1,.51.76l14.5,35.83a5.69,5.69,0,0,1-.15,5.32,3.42,3.42,0,0,1-2.86,1.54,4.48,4.48,0,0,1-3-1.27l-12.35-9.81L245.13,170A3.54,3.54,0,0,1,241.61,173.32Zm-13.18-35,12.45,29.12,2.78-15.88a2.32,2.32,0,0,1,3.72-1.41l13.82,11-13-32A36.81,36.81,0,0,1,228.43,138.28Z"/><path class="cls-4" d="M261.43,164.23c2,1.78,3.47-.13,2.33-3l-14.51-35.83-.28-.28a35,35,0,1,0-47.86,3.16l-1.67.8L186.5,161.25c-1.11,2.85.31,4.76,2.33,3l15.51-12.31,3.1,17.64c.24,2.43,2.82,1.63,4.07-1.18l13.64-31.9,13.63,31.9c1.22,2.81,3.79,3.61,4.07,1.18l3.09-17.64Z"/><path class="cls-2" d="M266.57,187.11H15.29C6.86,187.11,0,180.74,0,172.9V14.21C0,6.37,6.86,0,15.29,0H266.57c8.43,0,15.29,6.37,15.29,14.21V172.9C281.86,180.74,275,187.11,266.57,187.11ZM15.29,4.63c-5.88,0-10.66,4.3-10.66,9.58V172.9c0,5.28,4.78,9.58,10.66,9.58H266.57c5.88,0,10.66-4.3,10.66-9.58V14.21c0-5.28-4.78-9.58-10.66-9.58ZM241.61,173.32c-2,0-3.9-1.58-5-4l-11.5-26.92-11.51,26.91c-1.09,2.46-3,4-5,4a3.57,3.57,0,0,1-3.51-3.54l-2.4-13.62-12.47,9.89a4.39,4.39,0,0,1-2.9,1.19,3.42,3.42,0,0,1-2.84-1.52,5.76,5.76,0,0,1-.19-5.32l12.95-32.16.08-.18a37.32,37.32,0,1,1,54.4-2.58l14.13,34.9a5.69,5.69,0,0,1-.15,5.32,3.42,3.42,0,0,1-2.86,1.54h0a4.48,4.48,0,0,1-3-1.27l-12.35-9.81L245.13,170A3.54,3.54,0,0,1,241.61,173.32Zm-16.46-39.15h0a2.33,2.33,0,0,1,2.13,1.4l13.6,31.83,2.78-15.88a2.32,2.32,0,0,1,3.72-1.41l13.82,11-13.92-34.37a2.31,2.31,0,0,1,0-3.16,32.67,32.67,0,1,0-44.7,3,2.31,2.31,0,0,1-.47,3.87l-.86.41L189,161.33l13.95-11.22a2.31,2.31,0,0,1,3.71,1.41l2.79,15.87L223,135.57A2.31,2.31,0,0,1,225.15,134.17Z"/><path class="cls-4" d="M223.37,66.29a35,35,0,0,1,1.78,70c-.6,0-1.19,0-1.78,0a35,35,0,0,1,0-70Zm9.56,37.25,12.15-8.8h-15A2.16,2.16,0,0,1,228,93.21L223.37,79l-4.62,14.26a2.21,2.21,0,0,1-2.09,1.53h-15l12.15,8.8a2.21,2.21,0,0,1,.8,2.43l-4.67,14.27,12.14-8.81a2.22,2.22,0,0,1,2.58,0l12.14,8.81L232.13,106A2.21,2.21,0,0,1,232.93,103.54Z"/><path class="cls-2" d="M223.37,138.62a37.36,37.36,0,1,1,27.29-11.9,37,37,0,0,1-25.4,11.86C224.65,138.62,224,138.62,223.37,138.62Zm0-70a32.7,32.7,0,1,0,.14,65.39c.49,0,1,0,1.49,0a32.7,32.7,0,0,0-1.63-65.36Zm13.43,54a2.28,2.28,0,0,1-1.36-.44l-12.07-8.75-12.07,8.75a2.31,2.31,0,0,1-3.56-2.59l4.67-14.27-12.1-8.63a2.32,2.32,0,0,1,1.35-4.2h15l4.51-14.18a2.32,2.32,0,0,1,2.2-1.61h0a2.31,2.31,0,0,1,2.2,1.6l4.66,14.26,14.85-.07a2.32,2.32,0,0,1,1.35,4.2l-12.14,8.79L239,119.52a2.32,2.32,0,0,1-.84,2.59A2.25,2.25,0,0,1,236.8,122.55Zm-28-25.49,6.36,4.6a4.54,4.54,0,0,1,1.65,5l-2.46,7.52,6.36-4.61a4.6,4.6,0,0,1,5.3,0l6.36,4.61-2.45-7.48a4.54,4.54,0,0,1,1.64-5l6.36-4.61h-7.85a4.46,4.46,0,0,1-4.26-3.17l-2.44-7.46L221,93.92a4.54,4.54,0,0,1-4.29,3.14Z"/><path class="cls-4" d="M225.15,136.27v.21l-13.64,31.9c-1.25,2.81-3.83,3.61-4.07,1.18l-3.1-17.64-15.51,12.31c-2,1.78-3.44-.13-2.33-3l12.94-32.15,1.67-.8a35,35,0,0,0,22.26,8C224,136.31,224.55,136.31,225.15,136.27Z"/><path class="cls-2" d="M208.65,173.32a3.57,3.57,0,0,1-3.51-3.54l-2.4-13.62-12.47,9.89a4.39,4.39,0,0,1-2.9,1.19,3.42,3.42,0,0,1-2.84-1.52,5.76,5.76,0,0,1-.19-5.32l12.95-32.16a2.34,2.34,0,0,1,1.15-1.23l1.67-.8a2.34,2.34,0,0,1,2.47.3A32.86,32.86,0,0,0,223.51,134c.49,0,1,0,1.49,0a2.27,2.27,0,0,1,1.73.62,2.31,2.31,0,0,1,.73,1.69,3.5,3.5,0,0,1-.18,1.12l-13.64,31.9C212.55,171.75,210.59,173.32,208.65,173.32Zm-4.31-23.71a2.39,2.39,0,0,1,.83.15,2.31,2.31,0,0,1,1.45,1.76l2.79,15.87,12.32-28.81a37.47,37.47,0,0,1-20.65-7.36L189,161.33l13.95-11.22A2.28,2.28,0,0,1,204.34,149.61Z"/><path class="cls-5" d="M241.6,173.32c-1.94,0-3.88-1.55-4.95-4L223,137.39a2.32,2.32,0,0,1,4.26-1.82l13.6,31.83,2.78-15.88a2.32,2.32,0,0,1,3.72-1.41l13.82,11-14.1-34.8a2.32,2.32,0,0,1,4.3-1.74l14.5,35.83c1.05,2.6.64,5.05-1,6.24-1.14.8-3,1-5-.65l-12.35-9.81L245.13,170a3.59,3.59,0,0,1-3,3.33A4.58,4.58,0,0,1,241.6,173.32Z"/><path class="cls-5" d="M223.37,138.62a37.36,37.36,0,1,1,27.29-11.9,37,37,0,0,1-25.4,11.86C224.65,138.62,224,138.62,223.37,138.62Zm0-70a32.7,32.7,0,1,0,.14,65.39c.49,0,1,0,1.49,0a32.7,32.7,0,0,0-1.63-65.36Z"/><path class="cls-5" d="M236.87,122.55h-.07a2.28,2.28,0,0,1-1.36-.44l-12.14-8.8-12,8.8a2.31,2.31,0,0,1-3.56-2.59l4.67-14.27-12.1-8.63a2.32,2.32,0,0,1,1.35-4.2h15l4.51-14.18a2.32,2.32,0,0,1,2.2-1.61h0a2.31,2.31,0,0,1,2.2,1.6l4.66,14.26,14.85-.07a2.32,2.32,0,0,1,1.35,4.2l-12.14,8.79L238.83,119a2.37,2.37,0,0,1,.36,1.24A2.31,2.31,0,0,1,236.87,122.55ZM208.81,97.06l6.36,4.6a4.54,4.54,0,0,1,1.65,5l-2.46,7.52,6.36-4.61a4.6,4.6,0,0,1,5.3,0l6.36,4.61-2.45-7.48a4.54,4.54,0,0,1,1.64-5l6.36-4.61h-7.85a4.46,4.46,0,0,1-4.26-3.17l-2.44-7.46L221,93.92a4.54,4.54,0,0,1-4.29,3.14Z"/><path class="cls-5" d="M266.57,187.11H15.29C6.86,187.11,0,180.74,0,172.9V14.21C0,6.37,6.86,0,15.29,0H266.57c8.43,0,15.29,6.37,15.29,14.21V172.9C281.86,180.74,275,187.11,266.57,187.11ZM15.29,4.63c-5.88,0-10.66,4.3-10.66,9.58V172.9c0,5.28,4.78,9.58,10.66,9.58H266.57c5.88,0,10.66-4.3,10.66-9.58V14.21c0-5.28-4.78-9.58-10.66-9.58Z"/><path class="cls-5" d="M208.66,173.32a3.48,3.48,0,0,1-3.52-3.54l-2.4-13.62-12.47,9.89a3.83,3.83,0,0,1-4.85.58c-1.67-1.18-2.1-3.62-1.08-6.23l12.95-32.16a2.32,2.32,0,1,1,4.3,1.73L189.06,161.1l13.85-11a2.31,2.31,0,0,1,3.71,1.41l2.79,15.87L223,135.57a2.32,2.32,0,0,1,4.26,1.82l-13.64,31.9C212.53,171.78,210.59,173.32,208.66,173.32Z"/><path class="cls-5" d="M246.57,44.29H213.39a2.32,2.32,0,0,1,0-4.63h33.18a2.32,2.32,0,1,1,0,4.63Z"/><path class="cls-5" d="M182.43,44.29H166.64a2.32,2.32,0,1,1,0-4.63h15.79a2.32,2.32,0,0,1,0,4.63Z"/><path class="cls-5" d="M129.8,44.29H19.26a2.32,2.32,0,1,1,0-4.63H129.8a2.32,2.32,0,1,1,0,4.63Z"/><path class="cls-5" d="M151,75.77H28.72a2.32,2.32,0,0,1,0-4.64H151a2.32,2.32,0,1,1,0,4.64Z"/><path class="cls-5" d="M161.59,102.06H130.5a2.32,2.32,0,1,1,0-4.63h31.09a2.32,2.32,0,1,1,0,4.63Z"/><path class="cls-5" d="M115.92,102.06H28.72a2.32,2.32,0,1,1,0-4.63h87.2a2.32,2.32,0,1,1,0,4.63Z"/><path class="cls-5" d="M161.59,128.36H67.71a2.32,2.32,0,0,1,0-4.63h93.88a2.32,2.32,0,1,1,0,4.63Z"/><path class="cls-5" d="M51.19,128.36H28.72a2.32,2.32,0,1,1,0-4.63H51.19a2.32,2.32,0,0,1,0,4.63Z"/><path class="cls-5" d="M161.59,154.65h-58a2.32,2.32,0,1,1,0-4.63h58.05a2.32,2.32,0,1,1,0,4.63Z"/><path class="cls-5" d="M87.78,154.65H28.72a2.32,2.32,0,1,1,0-4.63H87.78a2.32,2.32,0,1,1,0,4.63Z"/></g></g></svg>