<svg xmlns="http://www.w3.org/2000/svg" viewBox="0 0 104.28 87.14"><defs><style>.cls-1{fill:#3b3b93;}.cls-2,.cls-3,.cls-4,.cls-7{fill:none;stroke-linejoin:round;}.cls-2,.cls-4{stroke:#312f7f;}.cls-2,.cls-3{stroke-width:3px;}.cls-3,.cls-7{stroke:#f5cc64;}.cls-4,.cls-7{stroke-width:2.5px;}.cls-5{fill:#fff;}.cls-6{fill:#4f4f9e;}</style></defs><g id="Layer_2" data-name="Layer 2"><g id="Objects"><path class="cls-1" d="M96.5,6.7H89A6.29,6.29,0,0,1,95.28,13V79.36A6.28,6.28,0,0,1,89,85.64h7.5a6.28,6.28,0,0,0,6.28-6.28V13A6.29,6.29,0,0,0,96.5,6.7Z"/><rect class="cls-2" x="1.5" y="6.7" width="101.28" height="78.94" rx="6.29"/><path class="cls-1" d="M95.5,6.7H87.79A7.28,7.28,0,0,1,95.07,14v14.4h7.71V14A7.28,7.28,0,0,0,95.5,6.7Z"/><path class="cls-2" d="M102.78,14A7.28,7.28,0,0,0,95.5,6.7H8.78A7.28,7.28,0,0,0,1.5,14v14.4H102.78Z"/><path class="cls-3" d="M26.16,17.54a4.72,4.72,0,1,1-4.72-4.71A4.72,4.72,0,0,1,26.16,17.54Z"/><path class="cls-3" d="M56.94,17.54a4.72,4.72,0,1,1-4.72-4.71A4.72,4.72,0,0,1,56.94,17.54Z"/><path class="cls-3" d="M89.05,17.54a4.72,4.72,0,1,1-4.72-4.71A4.72,4.72,0,0,1,89.05,17.54Z"/><rect class="cls-4" x="26.16" y="40.63" width="11.42" height="10.26"/><rect class="cls-4" x="37.58" y="40.63" width="11.42" height="10.26"/><rect class="cls-4" x="49" y="40.63" width="11.42" height="10.26"/><rect class="cls-4" x="60.42" y="40.63" width="11.42" height="10.26"/><rect class="cls-4" x="71.83" y="40.63" width="11.42" height="10.26"/><rect class="cls-4" x="14.74" y="50.89" width="11.42" height="10.26"/><rect class="cls-4" x="26.16" y="50.89" width="11.42" height="10.26"/><rect class="cls-4" x="37.58" y="50.89" width="11.42" height="10.26"/><rect class="cls-4" x="49" y="50.89" width="11.42" height="10.26"/><rect class="cls-4" x="60.42" y="50.89" width="11.42" height="10.26"/><rect class="cls-4" x="71.83" y="50.89" width="11.42" height="10.26"/><rect class="cls-4" x="14.74" y="61.15" width="11.42" height="10.26"/><rect class="cls-4" x="26.16" y="61.15" width="11.42" height="10.26"/><rect class="cls-4" x="37.58" y="61.15" width="11.42" height="10.26"/><rect class="cls-4" x="49" y="61.15" width="11.42" height="10.26"/><rect class="cls-4" x="60.42" y="61.15" width="11.42" height="10.26"/><path class="cls-5" d="M81.43,40.89l3.69,11.33H97a1.44,1.44,0,0,1,.84,2.6l-9.64,7,3.68,11.33a1.44,1.44,0,0,1-2.21,1.61l-9.64-7-9.64,7a1.44,1.44,0,0,1-2.21-1.61L71.9,61.83l-9.64-7a1.44,1.44,0,0,1,.84-2.6H75L78.7,40.89A1.44,1.44,0,0,1,81.43,40.89Z"/><path class="cls-6" d="M82.24,53.4h3.47L82,42.07a1.43,1.43,0,0,0-2.73,0l-1,3.21,2.22,6.83A1.86,1.86,0,0,0,82.24,53.4Z"/><path class="cls-6" d="M97,52.22H92.21a1.44,1.44,0,0,1,.85,2.6l-8.4,6.11a2.11,2.11,0,0,0-.77,2.35L87,72.78l2.73,2a1.44,1.44,0,0,0,2.21-1.61L88.24,61.83l9.64-7A1.44,1.44,0,0,0,97,52.22Z"/><path class="cls-4" d="M81.43,40.89l3.69,11.33H97a1.44,1.44,0,0,1,.84,2.6l-9.64,7,3.68,11.33a1.44,1.44,0,0,1-2.21,1.61l-9.64-7-9.64,7a1.44,1.44,0,0,1-2.21-1.61L71.9,61.83l-9.64-7a1.44,1.44,0,0,1,.84-2.6H75L78.7,40.89A1.44,1.44,0,0,1,81.43,40.89Z"/><line class="cls-7" x1="21.44" y1="12.83" x2="21.44"/><line class="cls-7" x1="52.22" y1="12.83" x2="52.22"/><line class="cls-7" x1="84.41" y1="12.83" x2="84.41"/><line class="cls-3" x1="35.07" y1="17.54" x2="42.93" y2="17.54"/><line class="cls-3" x1="29.57" y1="17.54" x2="32.55" y2="17.54"/><line class="cls-3" x1="67.16" y1="17.54" x2="75.78" y2="17.54"/><line class="cls-3" x1="61" y1="17.54" x2="64.11" y2="17.54"/><line class="cls-7" x1="28.75" y1="78.5" x2="34.21" y2="78.5"/><line class="cls-7" x1="11.07" y1="78.5" x2="24.46" y2="78.5"/></g></g></svg>