<svg width="19" height="18" viewBox="0 0 19 18" fill="none" xmlns="http://www.w3.org/2000/svg">
<path fill-rule="evenodd" clip-rule="evenodd" d="M10.5137 0.805856C11.5868 -0.268899 13.3274 -0.269556 14.4013 0.804385L16.8932 3.29624C17.958 4.36102 17.969 6.08478 16.918 7.16315L7.68485 16.6364C6.97932 17.3603 6.01166 17.7685 5.00122 17.7684L2.07063 17.7683C0.8887 17.7682 -0.0551951 16.783 -0.00548513 15.6012L0.0527783 14.216L0.111041 12.8308L0.120172 12.6138C0.159672 11.6747 0.549951 10.7847 1.21379 10.1199L3.27274 8.05781C3.56541 7.76469 4.0401 7.76451 4.33299 8.05741C4.62589 8.3503 4.62607 8.82535 4.3334 9.11847L2.27445 11.1805C1.87615 11.5794 1.64198 12.1134 1.61828 12.6769L1.60915 12.894L1.55088 14.2791L1.49262 15.6643C1.47878 15.9934 1.7416 16.2677 2.07069 16.2677L5.00129 16.2679C5.60755 16.2679 6.18815 16.023 6.61146 15.5886L13.1442 8.88605L11.3556 7.0975C11.0627 6.80461 11.0627 6.32973 11.3556 6.03684C11.6485 5.74395 12.1234 5.74395 12.4163 6.03684L14.1912 7.81177L15.8446 6.11539C16.3223 5.62522 16.3173 4.84169 15.8333 4.3577L13.3415 1.86585C12.8533 1.37769 12.0622 1.37799 11.5744 1.86652L7.2181 6.22939C6.92543 6.5225 6.45074 6.52268 6.15784 6.22979C5.86495 5.9369 5.86477 5.46184 6.15744 5.16873L10.5137 0.805856ZM17.5148 17.6951C17.9289 17.6951 18.2645 17.3592 18.2645 16.9448C18.2645 16.5305 17.9289 16.1945 17.5148 16.1945H11.3931C10.979 16.1945 10.6434 16.5305 10.6434 16.9448C10.6434 17.3592 10.979 17.6951 11.3931 17.6951H17.5148Z" fill="white"/>
</svg>
