<svg width="22" height="22" viewBox="0 0 22 22" fill="none" xmlns="http://www.w3.org/2000/svg">
<path d="M8.03125 2.97232L8.625 2.50357V2.50357C10.0175 1.40422 11.9825 1.40422 13.375 2.50357L18.9786 6.92745C19.9394 7.68601 20.5 8.84279 20.5 10.067V16.6286C20.5 18.8377 18.7091 20.6286 16.5 20.6286H15C14.4477 20.6286 14 20.1809 14 19.6286V17.6286M4.46875 5.78482L3.875 6.25357L3.02142 6.92745C2.06058 7.68601 1.5 8.84279 1.5 10.067L1.5 16.6286C1.5 18.8377 3.29086 20.6286 5.5 20.6286H7C7.55228 20.6286 8 20.1809 8 19.6286V16.6286C8 15.524 8.89543 14.6286 10 14.6286H11" stroke="#DBB66B" stroke-width="1.5" stroke-linecap="round"/>
</svg>
