<svg width="18" height="22" viewBox="0 0 18 22" fill="none" xmlns="http://www.w3.org/2000/svg">
<path d="M1 9V5C1 2.79086 2.79086 1 5 1H9H11.0633C11.6568 1 12.2197 1.26365 12.5997 1.71963L16.5364 6.44373C16.836 6.80316 17 7.25623 17 7.7241V11V17C17 19.2091 15.2091 21 13 21H5C2.79086 21 1 19.2091 1 17V14" stroke="white" stroke-width="1.5" stroke-linecap="round"/>
<path d="M12 1.5V5C12 5.55345 12.2248 6.05439 12.5881 6.4165C12.9498 6.77708 13.4489 7 14 7" stroke="white" stroke-width="1.5" stroke-linecap="round"/>
<path d="M5 11H9" stroke="white" stroke-width="1.5" stroke-linecap="round"/>
<path d="M13 11H12" stroke="white" stroke-width="1.5" stroke-linecap="round"/>
<path d="M5 16H9" stroke="white" stroke-width="1.5" stroke-linecap="round"/>
</svg>
