<svg width="18" height="22" viewBox="0 0 18 22" fill="none" xmlns="http://www.w3.org/2000/svg">
<path d="M5.48211 2C6.4418 1.36786 7.59099 1 8.82609 1C12.1878 1 14.9131 3.72522 14.9131 7.08696V9.17951C14.9131 10.2798 15.6221 11.2422 16.1857 12.1872C16.482 12.684 16.6522 13.2647 16.6522 13.8851C16.6522 15.488 15.507 16.8633 13.9193 17.0834C12.3426 17.3021 10.3724 17.522 8.82609 17.522C7.27974 17.522 5.3096 17.3021 3.73291 17.0834C2.1452 16.8633 1 15.488 1 13.8851C1 13.2647 1.1702 12.684 1.46647 12.1872C2.03006 11.2422 2.73914 10.2798 2.73914 9.17949V7.08696C2.73914 6.25578 2.90573 5.46351 3.20735 4.74173" stroke="#DBB66B" stroke-width="1.5" stroke-linecap="round"/>
<path d="M11 19.834C10.5326 20.5369 9.73347 21.0002 8.82609 21.0002C7.91871 21.0002 7.11954 20.5369 6.65218 19.834" stroke="#DBB66B" stroke-width="1.5" stroke-linecap="round"/>
</svg>
