<svg width="22" height="21" viewBox="0 0 22 21" fill="none" xmlns="http://www.w3.org/2000/svg">
<path d="M1 14.5429V15.0429C1 17.8043 3.23858 20.0429 6 20.0429H16C18.7614 20.0429 21 17.8043 21 15.0429V9.04286C21 6.28144 18.7614 4.04286 16 4.04286H6C3.23858 4.04286 1 6.28144 1 9.04286V10.0429" stroke="#DBB66B" stroke-width="1.5" stroke-linecap="round"/>
<path d="M18 4.54286V4.382C18 2.14196 15.944 0.466151 13.75 0.917862V0.917862L9.5 1.79286L4.99174 2.72103C2.66769 3.19951 1 5.24553 1 7.61832L1 10.0429" stroke="#DBB66B" stroke-width="1.5"/>
<path d="M5 17.7929H11" stroke="#DBB66B" stroke-width="1.5" stroke-linecap="round" stroke-linejoin="round"/>
<path d="M21 14.5429V15.2929H21.75V14.5429H21ZM17.5 10.2929C17.9142 10.2929 18.25 9.95708 18.25 9.54286C18.25 9.12865 17.9142 8.79286 17.5 8.79286V10.2929ZM20.25 9.54286V14.5429H21.75V9.54286H20.25ZM21 13.7929H16.5V15.2929H21V13.7929ZM16.5 10.2929H17.5V8.79286H16.5V10.2929ZM16.5 13.7929C15.5335 13.7929 14.75 13.0094 14.75 12.0429H13.25C13.25 13.8378 14.7051 15.2929 16.5 15.2929V13.7929ZM14.75 12.0429C14.75 11.0764 15.5335 10.2929 16.5 10.2929V8.79286C14.7051 8.79286 13.25 10.2479 13.25 12.0429H14.75Z" fill="#DBB66B"/>
<path d="M16.5 13.8429H16.7" stroke="#DBB66B" stroke-width="1.5" stroke-linecap="round" stroke-linejoin="round"/>
</svg>
