<svg width="20" height="22" viewBox="0 0 20 22" fill="none" xmlns="http://www.w3.org/2000/svg">
<path d="M18.2891 9.92693C19.237 10.4595 19.237 11.8325 18.2891 12.365L12.2525 15.7566C10.8524 16.5432 9.14756 16.5432 7.74754 15.7566L1.71092 12.365C0.763024 11.8325 0.763026 10.4595 1.71093 9.92693M13.7616 2.43782L12.2525 1.58993C10.8524 0.803358 9.14756 0.803356 7.74754 1.58993L1.71093 4.98149C0.763026 5.51405 0.763024 6.88705 1.71092 7.41961L7.74754 10.8112C9.14756 11.5977 10.8524 11.5977 12.2525 10.8112L18.2891 7.41961C19.237 6.88705 19.237 5.51405 18.2891 4.98149L16.7799 4.1336M18.5828 15C19.0839 15.637 18.9529 16.6455 18.1685 17.0862L12.2525 20.4101C10.8524 21.1966 9.14756 21.1966 7.74754 20.4101L1.9178 17.1347C1.11034 16.6811 0.998164 15.6312 1.54314 15" stroke="#DBB66B" stroke-width="1.5" stroke-linecap="round"/>
</svg>
