<?xml version="1.0" encoding="utf-8"?>
<!-- Generator: Adobe Illustrator 27.9.0, SVG Export Plug-In . SVG Version: 6.00 Build 0)  -->
<svg version="1.1" id="_x2DC_àð_x5F_1" xmlns="http://www.w3.org/2000/svg" xmlns:xlink="http://www.w3.org/1999/xlink" x="0px"
	 y="0px" viewBox="0 0 3000 3000" style="enable-background:new 0 0 3000 3000;" xml:space="preserve">
<style type="text/css">
	.st0{fill:#ECEEF0;}
	.st1{fill:#8295AC;}
	.st2{fill:#B4BFCD;}
	.st3{fill:#FFCD6F;}
	.st4{fill:#CDD5DE;}
	.st5{fill:#E1E6EB;}
	.st6{fill:#627081;}
</style>
<g id="_x2DC_àð_x5F_8">
</g>
<g id="_x2DC_àð_x5F_7">
	<g id="_x2DC_àð_x5F_5">
		<circle class="st0" cx="1221" cy="1906.1" r="416.8"/>
		<circle class="st0" cx="1660.4" cy="1206.9" r="535.4"/>
		
			<ellipse transform="matrix(0.9779 -0.2089 0.2089 0.9779 -438.752 430.118)" class="st0" cx="1816.7" cy="2292.1" rx="56.3" ry="56.3"/>
		
			<ellipse transform="matrix(0.3436 -0.9391 0.9391 0.3436 -1061.4698 2958.1831)" class="st0" cx="1585.3" cy="2238.4" rx="31.6" ry="31.6"/>
		
			<ellipse transform="matrix(0.917 -0.3988 0.3988 0.917 -152.8552 559.6056)" class="st0" cx="1268.6" cy="647.2" rx="56.1" ry="56.1"/>
		
			<ellipse transform="matrix(0.3457 -0.9384 0.9384 0.3457 427.6051 1795.9783)" class="st0" cx="1501.6" cy="591.4" rx="31.4" ry="31.4"/>
	</g>
	<g id="_x2DC_àð_x5F_6">
		<path class="st1" d="M2005.7,1031.2v1047.3c0,48.5-39.7,88.2-88.2,88.2h-831c-48.5,0-88.2-39.7-88.2-88.2V854
			c0-48.5,39.7-88.2,88.2-88.2h653.9L2005.7,1031.2z"/>
		<path class="st2" d="M2005.7,1031.2l-187.1-10.6c-36.5-2.1-65.6-31.2-67.6-67.6l-10.6-187.1L2005.7,1031.2z"/>
		<path class="st3" d="M1861.9,1565.6H1142c-4,0-7.3-3.3-7.3-7.3l0,0c0-4,3.3-7.3,7.3-7.3h719.9c4,0,7.3,3.3,7.3,7.3l0,0
			C1869.2,1562.3,1866,1565.6,1861.9,1565.6z"/>
		<path class="st4" d="M1861.9,1654.1H1142c-4,0-7.3-3.3-7.3-7.3l0,0c0-4,3.3-7.3,7.3-7.3h719.9c4,0,7.3,3.3,7.3,7.3l0,0
			C1869.2,1650.9,1866,1654.1,1861.9,1654.1z"/>
		<path class="st4" d="M1861.9,1742.7H1142c-4,0-7.3-3.3-7.3-7.3l0,0c0-4,3.3-7.3,7.3-7.3h719.9c4,0,7.3,3.3,7.3,7.3l0,0
			C1869.2,1739.4,1866,1742.7,1861.9,1742.7z"/>
		<path class="st4" d="M1568.5,1831.2H1142c-4,0-7.3-3.3-7.3-7.3l0,0c0-4,3.3-7.3,7.3-7.3h426.5c4,0,7.3,3.3,7.3,7.3l0,0
			C1575.8,1827.9,1572.5,1831.2,1568.5,1831.2z"/>
	</g>
	<g id="_x2DC_àð_x5F_11">
		<path class="st5" d="M1669.8,1272.1l-471.9,90.8c-27.8,5.3-54.7-12.9-60-40.7l-90.8-471.9c-5.3-27.8,12.9-54.7,40.7-60l471.9-90.8
			c27.8-5.3,54.7,12.9,60,40.7l90.8,471.9C1715.8,1239.9,1697.6,1266.8,1669.8,1272.1z"/>
		
			<ellipse transform="matrix(0.7071 -0.7071 0.7071 0.7071 -261.0934 1234.6527)" class="st3" cx="1359.8" cy="932.5" rx="101" ry="101"/>
		<path class="st6" d="M1579.4,1176.3c1.8,9.1,2.7,18.2,3,27.2l-328.8,63.2c-3.1-8.4-5.5-17.3-7.3-26.4
			c-17.7-92,42.5-180.9,134.5-198.6C1472.8,1024.1,1561.7,1084.3,1579.4,1176.3z"/>
	</g>
	<g id="_x2DC_àð_x5F_10">
		<path class="st6" d="M1164,714.3c-3.3-4.4-7.4-8.1-12.2-10.8c-2.9-1.6-6-2.9-9.3-3.8c-3.3-0.9-6.7-1.4-10.3-1.4
			c-10.9,0-20.8,4.4-27.9,11.6c-7.1,7.1-11.6,17-11.6,27.9V851c0,21.1,16.6,38.4,37.5,39.4c0.7,0,1.3,0,2,0c2.4,0,4.8-0.2,7.1-0.6
			c5.4-1,10.5-3.1,14.9-6.1c10.5-7.1,17.5-19.1,17.5-32.8V737.7C1171.8,728.9,1168.9,720.8,1164,714.3z M1101.8,849.1V739.8
			c0-8.4,3.4-16.1,8.9-21.6c3.4-3.4,7.6-6,12.3-7.5c-0.5,0.4-1,0.9-1.4,1.4c-7.1,7.1-11.6,17-11.6,27.9v113.3c0,8.2,2.5,15.7,6.7,22
			C1107.8,870,1101.8,860.2,1101.8,849.1z M1162.8,849.1c0,6.8-2.2,13-5.9,18.1v-62.6c0-0.5,0-1,0-1.4h-9v72.2
			c-2.1,1.3-4.4,2.3-6.9,3c-1.3,0.4-2.6,0.7-4,0.9c-1.9-0.9-3.8-1.9-5.5-3.2c-7.6-5.5-12.6-14.5-12.6-24.7V742.1
			c0-8.4,3.4-16.1,8.9-21.6c3.5-3.5,7.9-6.2,12.8-7.7c1.3-0.4,2.6-0.7,4-0.9c1.9,0.9,3.8,1.9,5.5,3.2c7.6,5.5,12.6,14.5,12.6,24.7
			V849.1z"/>
	</g>
</g>
</svg>
