<svg width="22" height="22" viewBox="0 0 22 22" fill="none" xmlns="http://www.w3.org/2000/svg">
<circle cx="3" cy="3" r="3" transform="matrix(-1 0 0 1 14 8)" stroke="white" stroke-width="1.5"/>
<path d="M16.7521 4.32987C17.0675 4.35581 17.3834 4.33129 17.6879 4.2595C18.016 4.18215 18.3774 4.24076 18.5967 4.49671C19.3979 5.4317 20.0294 6.51632 20.4437 7.70289C20.5689 8.0617 20.3868 8.44185 20.0935 8.68352C19.4257 9.23375 18.9999 10.0672 18.9999 11C18.9999 11.9328 19.4257 12.7662 20.0935 13.3165C20.3868 13.5581 20.5689 13.9383 20.4437 14.2971C20.0295 15.4835 19.398 16.5681 18.597 17.503C18.3776 17.759 18.0162 17.8176 17.6881 17.7402C16.9703 17.5709 16.1891 17.6643 15.5 18.0621C14.7501 18.4951 14.2579 19.2029 14.077 19.9848C14.001 20.3136 13.788 20.6122 13.4608 20.695C12.6735 20.8942 11.8491 21 10.9999 21C10.1508 21 9.32643 20.8942 8.53921 20.695C8.21202 20.6122 7.99904 20.3137 7.92299 19.9848C7.86969 19.7544 7.78935 19.5304 7.68334 19.318M14.3561 2.75789C14.2305 2.52319 14.1368 2.27319 14.0771 2.01511C14.001 1.68633 13.7881 1.38787 13.4609 1.30508C12.6736 1.10585 11.8492 1 10.9999 1C10.1508 1 9.32637 1.10584 8.53914 1.30504C8.21198 1.38783 7.999 1.6863 7.92293 2.01508C7.74203 2.79691 7.24979 3.5046 6.49999 3.9375C5.81097 4.33531 5.02974 4.42873 4.31201 4.25948C3.98394 4.18212 3.62253 4.24072 3.40321 4.49667C2.60204 5.43167 1.97049 6.5163 1.55625 7.70287C1.43099 8.06169 1.61307 8.44184 1.90639 8.68351C2.5742 9.23374 2.99998 10.0671 2.99998 11C2.99998 11.9329 2.5742 12.7663 1.90638 13.3165C1.61307 13.5582 1.43099 13.9383 1.55625 14.2971C1.97044 15.4836 2.6019 16.5681 3.40294 17.503C3.62228 17.759 3.98373 17.8176 4.31183 17.7402C4.65125 17.6601 5.00488 17.6388 5.35625 17.6807" stroke="white" stroke-width="1.5" stroke-linecap="round"/>
</svg>
