<svg xmlns="http://www.w3.org/2000/svg" viewBox="0 0 375.19 239.34"><defs><style>.cls-1{fill:#312f7f;}.cls-2{fill:#f5cc64;}</style></defs><g id="Layer_2" data-name="Layer 2"><g id="Layer_1-2" data-name="Layer 1"><path class="cls-1" d="M214.35,166.57a48.52,48.52,0,1,0-53.51,0A77.69,77.69,0,0,0,110,239.34h12.94a64.69,64.69,0,0,1,129.37,0h12.94A77.69,77.69,0,0,0,214.35,166.57Zm-26.76-4.85a35.58,35.58,0,1,1,35.58-35.58A35.62,35.62,0,0,1,187.59,161.72Z"/><path class="cls-1" d="M279,134.23a48.47,48.47,0,1,0-68.49-65A61.3,61.3,0,0,1,222,75.24a35.48,35.48,0,1,1,30.29,54.14c-1.14,0-2.27-.07-3.39-.18a60.8,60.8,0,0,1-2.18,13.51c1.85-.16,3.68-.4,5.57-.4a65.92,65.92,0,0,1,7.75.51A64.76,64.76,0,0,1,317,207h12.94A77.67,77.67,0,0,0,279,134.23Z"/><path class="cls-1" d="M122.91,142.31c1.89,0,3.72.24,5.56.4a61.38,61.38,0,0,1-2.17-13.51c-1.12.11-2.25.18-3.39.18A35.56,35.56,0,1,1,153.2,75.24a61.3,61.3,0,0,1,11.44-6.06,48.48,48.48,0,1,0-68.49,65A77.67,77.67,0,0,0,45.28,207H58.22a64.75,64.75,0,0,1,56.94-64.18A65.92,65.92,0,0,1,122.91,142.31Z"/><path class="cls-2" d="M324.32,89A48.47,48.47,0,1,0,255.83,23.9,61.3,61.3,0,0,1,267.27,30,35.84,35.84,0,0,1,276,20.32a35.53,35.53,0,1,1,36.4,60.49,49.83,49.83,0,0,1,.11,18,64.72,64.72,0,0,1,49.79,62.86h12.94A77.67,77.67,0,0,0,324.32,89Z"/><path class="cls-2" d="M62,90.24a53.35,53.35,0,0,1,.88-9.43A35.52,35.52,0,1,1,107.92,30a61.3,61.3,0,0,1,11.44-6.06,48.9,48.9,0,0,0-8.3-10.45A48.47,48.47,0,1,0,50.87,89,77.67,77.67,0,0,0,0,161.72H12.94A64.72,64.72,0,0,1,62.73,98.86,53.13,53.13,0,0,1,62,90.24Z"/><path class="cls-2" d="M187.59,12.94a35.5,35.5,0,0,1,34.77,28.85c7.09-4.27,12.2-5.23,12.2-5.23a48.45,48.45,0,0,0-93.93,0s5.11,1,12.19,5.23A35.52,35.52,0,0,1,187.59,12.94Z"/></g></g></svg>