<svg width="16" height="19" viewBox="0 0 16 19" fill="none" xmlns="http://www.w3.org/2000/svg">
<path d="M4 4.87143C4 7.08057 5.79086 8.87143 8 8.87143C10.2091 8.87143 12 7.08057 12 4.87143C12 2.66229 10.2091 0.871429 8 0.871429" stroke="#DBB66B" stroke-width="1.5" stroke-linecap="round"/>
<path d="M1 14.8061C1 13.9457 1.54085 13.1783 2.35109 12.8889V12.8889C6.00404 11.5843 9.99596 11.5843 13.6489 12.8889V12.8889C14.4591 13.1783 15 13.9457 15 14.8061V16.1216C15 17.309 13.9483 18.2212 12.7728 18.0533L11.8184 17.9169C9.28565 17.5551 6.71435 17.5551 4.18162 17.9169L3.22721 18.0533C2.0517 18.2212 1 17.309 1 16.1216V14.8061Z" stroke="#DBB66B" stroke-width="1.5"/>
</svg>
