<svg width="20" height="19" viewBox="0 0 20 19" fill="none" xmlns="http://www.w3.org/2000/svg">
<path d="M4 5C4 7.20914 5.79086 9 8 9C10.2091 9 12 7.20914 12 5C12 2.79086 10.2091 1 8 1" stroke="white" stroke-width="1.5" stroke-linecap="round"/>
<path d="M1 14.9347C1 14.0743 1.54085 13.3068 2.35109 13.0175V13.0175C6.00404 11.7128 9.99596 11.7128 13.6489 13.0175V13.0175C14.4591 13.3068 15 14.0743 15 14.9347V16.2502C15 17.4376 13.9483 18.3498 12.7728 18.1818L11.8184 18.0455C9.28565 17.6837 6.71435 17.6837 4.18162 18.0455L3.22721 18.1818C2.0517 18.3498 1 17.4376 1 16.2502V14.9347Z" stroke="white" stroke-width="1.5"/>
<path d="M15 9H19" stroke="white" stroke-width="1.5" stroke-linecap="round" stroke-linejoin="round"/>
<path d="M17 7L17 11" stroke="white" stroke-width="1.5" stroke-linecap="round" stroke-linejoin="round"/>
</svg>
