<svg width="19" height="22" viewBox="0 0 19 22" fill="none" xmlns="http://www.w3.org/2000/svg">
<path d="M4.51431 5.68571C4.51431 8.27356 6.61218 10.3714 9.20003 10.3714C11.7879 10.3714 13.8857 8.27356 13.8857 5.68571C13.8857 3.09787 11.7879 1 9.20003 1" stroke="white" stroke-width="1.5" stroke-linecap="round"/>
<path d="M1 17.3235C1 16.3156 1.63357 15.4166 2.58271 15.0776V15.0776C6.86188 13.5493 11.5381 13.5493 15.8173 15.0776V15.0776C16.7664 15.4166 17.4 16.3156 17.4 17.3235V19.194C17.4 20.4111 16.322 21.346 15.1172 21.1739L13.0184 20.8741C10.4856 20.5122 7.91435 20.5122 5.38162 20.8741L3.28284 21.1739C2.07798 21.346 1 20.4111 1 19.194V17.3235Z" stroke="white" stroke-width="1.5"/>
</svg>
